<?xml version="1.0" encoding="UTF-8"?><svg id="Calque_2" xmlns="http://www.w3.org/2000/svg" xmlns:xlink="http://www.w3.org/1999/xlink" viewBox="0 0 109.38 17.01"><defs><style>.cls-1{fill:url(#Dégradé_sans_nom_81-2);}.cls-1,.cls-2,.cls-3,.cls-4{stroke-width:0px;}.cls-2{fill:#104845;}.cls-3{fill:url(#Dégradé_sans_nom_81);}.cls-4{fill:url(#Dégradé_sans_nom_20);}</style><linearGradient id="Dégradé_sans_nom_81" x1="5.24" y1="16.98" x2="5.24" y2="1.51" gradientUnits="userSpaceOnUse"><stop offset="0" stop-color="#fdc300"/><stop offset=".07" stop-color="#fdce00"/><stop offset=".2" stop-color="#fedf00"/><stop offset=".35" stop-color="#fee900"/><stop offset=".53" stop-color="#ffed00"/><stop offset=".68" stop-color="#fee900"/><stop offset=".82" stop-color="#fedd00"/><stop offset=".96" stop-color="#fdc900"/><stop offset="1" stop-color="#fdc300"/></linearGradient><linearGradient id="Dégradé_sans_nom_81-2" x1="27.59" y1="16.98" x2="27.59" y2="1.51" xlink:href="#Dégradé_sans_nom_81"/><linearGradient id="Dégradé_sans_nom_20" x1="16.41" y1="5.51" x2="16.41" y2=".08" gradientUnits="userSpaceOnUse"><stop offset="0" stop-color="#009fe3"/><stop offset="1" stop-color="#0086cd"/></linearGradient></defs><g id="Calque_2-2"><path class="cls-3" d="m10.47,7.84c-1.76.1-2.1,1.51-2.1,1.51,0,0-1.25,3.92-1.56,4.82-.31.9.05,1.58.29,2.01.25.43-.02.82-.46.82h-3.03C.73,17.01-.41,14.14.13,12.46c.43-1.34,2.1-6.88,3.05-9.86.49-.89,1.43-1.49,2.51-1.49,1.15,0,2.15.68,2.6,1.67l2.18,5.07Z"/><path class="cls-1" d="m29.21,17.01h-3.03c-.44,0-.7-.4-.46-.82.25-.42.6-1.11.29-2.01-.31-.9-1.56-4.82-1.56-4.82,0,0-.35-1.41-2.1-1.51l2.18-5.07c.45-.98,1.44-1.67,2.6-1.67,1.08,0,2.03.6,2.51,1.49.96,2.99,2.63,8.52,3.06,9.86.53,1.67-.6,4.55-3.49,4.55Z"/><path class="cls-4" d="m29.64,2.6c-.48-.89-1.43-1.49-2.51-1.49-1.15,0-2.15.68-2.6,1.67l-2.18,5.07-2.91,6.76c-.38.88-1.28,2.34-3.03,2.34s-2.65-1.46-3.03-2.34l-2.91-6.76-2.18-5.07c-.45-.98-1.44-1.67-2.6-1.67-1.08,0-2.03.6-2.51,1.49C3.88.51,5.82,0,7.01,0h5.01c2.28,0,2.78,1.63,3.16,2.47.38.84.7,1.87,1.22,1.87s.84-1.03,1.22-1.87c.38-.84.89-2.47,3.17-2.47h5.01c1.19,0,3.12.51,3.83,2.6Z"/><path class="cls-2" d="m41.05,5.17c.59,0,.94.18,1.32.87l3.81,6.92c.08.15.05.26-.14.26h-1.46c-.15,0-.21-.04-.26-.15l-.82-1.48h-5.41l-.79,1.48c-.06.11-.13.15-.26.15h-1.5c-.2,0-.23-.12-.15-.26l3.77-6.92c.38-.69.72-.87,1.21-.87h.68Zm-2.23,5.08h3.96l-1.83-3.37c-.03-.06-.07-.08-.13-.08h-.07c-.06,0-.09.02-.13.08l-1.81,3.37Z"/><path class="cls-2" d="m58.42,5.17c.21,0,.22.2.11.3l-3.53,3.58,3.69,3.88c.1.1.09.3-.11.3h-1.58c-.18,0-.28-.05-.37-.16l-2.84-2.98-2.85,2.98c-.1.12-.18.16-.38.16h-1.5c-.2,0-.21-.2-.1-.3l3.79-3.93-3.42-3.52c-.09-.1-.09-.3.12-.3h1.58c.18,0,.28.06.37.16l2.51,2.67,2.66-2.67c.09-.1.18-.16.37-.16h1.5Z"/><path class="cls-2" d="m63.51,5.17c.17,0,.25.08.25.25v7.55c0,.17-.08.25-.25.25h-1.24c-.17,0-.26-.08-.26-.25v-7.55c0-.17.09-.25.26-.25h1.24Z"/><path class="cls-2" d="m69.87,5.17c.69,0,.92.15,1.23.87l2.39,5.52c.04.08.08.1.16.1h.14c.08,0,.13-.02.16-.1l2.39-5.52c.31-.72.54-.87,1.22-.87h1.23c.81,0,1.01.32,1.01,1.2v6.6c0,.17-.09.25-.26.25h-1.17c-.17,0-.25-.08-.25-.25v-6.01c0-.08-.02-.12-.09-.12h-.1c-.08,0-.13.02-.15.09l-2.32,5.15c-.38.83-.7,1.13-1.47,1.13h-.55c-.77,0-1.09-.3-1.47-1.13l-2.32-5.15c-.02-.07-.07-.09-.15-.09h-.1c-.07,0-.09.03-.09.12v6.01c0,.17-.08.25-.25.25h-1.17c-.17,0-.26-.08-.26-.25v-6.6c0-.87.21-1.2,1.02-1.2h1.25Z"/><path class="cls-2" d="m85.11,5.17c.17,0,.25.08.25.25v4.59c0,1.22.34,1.58,1.53,1.58h3.19c1.18,0,1.52-.36,1.52-1.58v-4.59c0-.17.08-.25.25-.25h1.25c.17,0,.25.08.25.25v4.76c0,2.21-.89,3.04-3.22,3.04h-3.31c-2.32,0-3.22-.83-3.22-3.04v-4.76c0-.17.09-.25.26-.25h1.24Z"/><path class="cls-2" d="m99.44,5.17c.69,0,.92.15,1.23.87l2.39,5.52c.04.08.08.1.16.1h.14c.08,0,.13-.02.16-.1l2.39-5.52c.31-.72.54-.87,1.22-.87h1.23c.8,0,1.01.32,1.01,1.2v6.6c0,.17-.09.25-.26.25h-1.17c-.17,0-.25-.08-.25-.25v-6.01c0-.08-.02-.12-.09-.12h-.1c-.08,0-.13.02-.15.09l-2.32,5.15c-.38.83-.7,1.13-1.47,1.13h-.55c-.77,0-1.09-.3-1.47-1.13l-2.32-5.15c-.02-.07-.07-.09-.15-.09h-.1c-.07,0-.09.03-.09.12v6.01c0,.17-.08.25-.25.25h-1.17c-.17,0-.26-.08-.26-.25v-6.6c0-.87.21-1.2,1.02-1.2h1.25Z"/></g></svg>