<svg xmlns="http://www.w3.org/2000/svg" version="1.1" viewBox="0.00 0.00 800.00 718.00">
<path stroke="#f6bf82" stroke-width="2.00" fill="none" stroke-linecap="butt" vector-effect="non-scaling-stroke" d="  M 72.79 445.79  Q 74.57 445.81 76.21 445.18"></path>
<rect width="100%" height="100%" fill="black"/>
<g fill="#ffffff">
<path d="  M 401.30 115.34  Q 401.21 121.54 401.19 127.37  Q 401.19 129.21 400.84 132.60  Q 400.60 134.90 400.57 137.83  Q 400.56 138.26 400.99 138.29  Q 406.41 138.69 409.01 137.69  Q 411.82 136.60 413.45 128.60  A 0.32 0.31 4.6 0 1 413.75 128.35  L 414.13 128.35  Q 414.64 128.35 414.59 128.85  Q 413.87 136.98 413.93 145.66  Q 413.94 147.70 413.63 149.90  Q 413.58 150.28 413.20 150.26  Q 413.00 150.25 412.87 150.09  Q 412.77 149.97 412.74 149.81  Q 412.11 146.77 411.50 143.80  C 410.93 141.04 408.68 139.42 405.90 139.72  Q 404.27 139.90 402.84 139.53  Q 401.07 139.08 400.94 140.90  C 400.81 142.88 400.31 144.87 400.32 146.80  Q 400.33 156.49 399.78 166.20  Q 399.75 166.73 400.27 166.83  Q 404.86 167.71 410.19 167.60  Q 416.97 167.47 420.16 162.89  C 421.76 160.59 421.95 157.76 422.93 155.21  Q 424.84 150.21 424.19 155.52  Q 423.47 161.39 423.85 167.80  A 1.02 1.01 -89.5 0 1 422.77 168.87  C 418.63 168.60 414.44 169.19 410.34 168.72  C 406.92 168.33 403.68 168.74 400.27 168.18  Q 397.59 167.75 394.58 168.33  C 392.25 168.78 389.73 168.31 387.77 167.31  Q 386.88 166.86 387.88 166.75  Q 389.46 166.59 392.05 167.36  A 1.09 1.09 0.0 0 0 393.44 166.43  Q 394.47 156.86 394.71 146.49  C 394.93 136.59 395.32 126.76 395.52 116.77  Q 395.53 116.19 395.76 115.67  Q 396.01 115.12 395.84 114.62  A 0.62 0.60 80.3 0 0 395.25 114.19  L 389.65 114.23  Q 389.39 114.23 389.39 113.98  L 389.38 113.38  Q 389.38 113.09 389.67 113.10  L 422.69 114.04  A 0.48 0.48 0.0 0 1 423.16 114.53  Q 423.08 118.41 422.98 122.33  Q 422.95 123.43 422.59 124.57  Q 422.22 125.74 421.87 124.56  Q 419.67 117.19 413.73 115.21  Q 408.55 113.49 401.90 114.64  Q 401.30 114.74 401.30 115.34  Z"></path>
<path d="  M 361.61 115.44  C 364.01 113.58 365.17 115.93 367.37 115.40  Q 367.93 115.26 368.50 115.37  L 372.50 116.12  Q 373.08 116.23 373.34 115.70  L 373.80 114.77  Q 374.08 114.20 374.50 114.67  Q 375.64 115.96 375.92 117.77  Q 376.56 121.92 377.31 126.53  Q 377.81 129.64 376.38 126.83  C 374.62 123.36 372.31 118.13 368.42 116.68  Q 362.00 114.30 357.21 117.64  C 351.44 121.66 350.55 130.78 350.88 137.40  C 351.32 146.21 354.70 168.44 365.51 170.64  Q 367.50 171.05 369.53 171.46  Q 370.07 171.57 370.56 171.33  C 372.15 170.57 373.62 170.67 375.21 169.60  C 380.22 166.24 381.39 161.47 382.20 155.54  Q 382.75 151.52 383.38 155.52  Q 384.36 161.75 385.23 167.91  A 0.24 0.24 0.0 0 1 384.86 168.14  L 382.81 166.74  Q 382.42 166.47 381.99 166.64  Q 380.31 167.28 378.98 168.22  Q 374.13 171.64 368.75 172.27  Q 368.20 172.34 367.71 172.10  Q 366.50 171.52 365.14 171.75  Q 364.69 171.82 364.26 171.69  C 348.12 166.88 343.44 147.11 346.49 132.25  C 347.91 125.35 351.70 118.50 358.46 115.75  Q 359.80 115.21 361.19 115.53  A 0.52 0.52 0.0 0 0 361.61 115.44  Z"></path>
<path d="  M 464.76 128.18  Q 460.31 129.39 456.88 131.06  Q 455.27 131.85 456.48 130.53  Q 457.36 129.56 458.59 129.07  Q 465.24 126.44 471.10 123.50  Q 471.67 123.22 471.52 123.83  C 467.31 140.99 462.03 157.93 457.04 174.92  A 1.36 1.36 0.0 0 0 458.03 176.62  L 462.21 177.61  A 0.36 0.36 0.0 0 1 462.46 177.85  L 462.65 178.49  A 0.33 0.33 0.0 0 1 462.23 178.90  L 445.96 173.89  A 0.51 0.51 0.0 0 1 445.62 173.26  L 445.73 172.92  A 0.16 0.15 -76.9 0 1 445.90 172.81  Q 448.43 173.22 450.62 174.36  A 1.13 1.13 0.0 0 0 452.22 173.67  L 465.26 128.70  Q 465.47 127.99 464.76 128.18  Z"></path>
<path d="  M 334.49 164.99  A 0.32 0.32 0.0 0 0 334.67 164.57  L 320.25 128.95  A 0.92 0.92 0.0 0 0 318.85 128.55  Q 316.47 130.28 314.43 130.50  Q 312.94 130.66 314.23 129.90  Q 319.53 126.77 326.06 124.67  Q 326.30 124.59 326.39 124.83  L 326.56 125.33  Q 326.59 125.40 326.52 125.43  L 321.85 127.45  Q 320.96 127.84 321.32 128.75  L 341.00 177.97  Q 341.34 178.84 340.47 178.53  Q 339.04 178.04 337.78 176.94  C 334.63 174.18 331.57 170.84 328.53 168.22  Q 316.10 157.53 304.11 147.09  Q 301.11 144.48 298.50 141.62  A 0.44 0.44 0.0 0 0 297.76 141.78  Q 297.56 142.38 298.03 142.88  Q 298.28 143.15 298.42 143.49  L 315.88 186.66  A 0.86 0.86 0.0 0 0 317.21 187.01  Q 319.24 185.39 321.98 184.77  Q 322.67 184.62 322.24 185.18  C 320.87 186.98 316.10 188.47 313.95 189.24  Q 311.39 190.16 309.32 191.91  Q 303.05 197.20 293.86 201.97  Q 293.01 202.42 293.53 201.61  Q 294.62 199.91 297.36 199.12  Q 299.03 198.64 298.13 197.14  L 272.09 154.02  A 1.04 1.03 55.2 0 0 270.56 153.74  Q 268.52 155.34 266.27 156.48  Q 265.54 156.85 265.94 156.14  Q 266.71 154.78 268.10 153.93  C 270.55 152.44 273.19 151.52 275.40 149.63  Q 278.16 147.28 281.28 145.65  A 0.28 0.27 75.8 0 1 281.68 145.89  L 281.69 146.30  A 0.89 0.88 -15.2 0 1 281.23 147.09  L 277.00 149.51  A 0.75 0.75 0.0 0 0 276.73 150.55  Q 290.37 172.74 302.03 192.60  Q 302.36 193.16 302.67 193.78  Q 303.32 195.08 304.52 194.26  C 307.79 192.03 310.64 189.25 314.41 187.76  Q 314.93 187.56 314.75 187.03  Q 313.49 183.34 313.05 182.25  Q 306.31 165.40 299.40 148.62  Q 297.58 144.19 296.02 139.71  A 1.12 1.12 0.0 0 0 294.35 139.14  Q 292.31 140.48 290.09 141.15  Q 289.36 141.37 289.79 140.74  Q 290.59 139.56 291.84 139.07  Q 296.18 137.37 300.54 135.70  Q 301.01 135.52 301.38 135.85  Q 319.13 152.08 333.82 164.87  Q 334.13 165.14 334.49 164.99  Z"></path>
<path d="  M 495.80 167.15  Q 493.13 168.46 490.07 168.23  Q 489.46 168.18 489.05 167.75  Q 483.97 166.36 482.01 162.54  C 477.38 153.46 482.80 141.87 490.43 136.80  C 493.89 134.50 499.04 133.76 502.69 135.99  Q 509.12 139.92 508.71 148.10  C 508.16 159.03 502.72 169.89 495.77 178.94  Q 491.34 184.70 485.23 186.62  Q 480.03 188.26 475.88 186.37  Q 471.00 184.15 470.52 177.87  C 470.29 174.84 472.82 170.51 476.32 170.92  Q 476.81 170.98 477.12 171.36  Q 478.26 172.78 478.13 174.19  A 1.99 1.98 74.6 0 1 477.32 175.62  C 474.83 177.39 471.89 179.83 474.15 183.18  C 476.95 187.31 482.89 186.87 486.39 183.86  Q 489.04 181.58 490.70 178.34  Q 493.43 173.00 496.21 167.57  Q 496.64 166.73 495.80 167.15  Z  M 492.01 141.24  C 488.23 146.69 482.07 158.31 485.24 164.33  Q 486.69 167.07 489.84 167.40  Q 494.57 167.89 497.65 163.55  Q 503.69 155.02 504.96 143.17  C 505.24 140.60 504.38 136.88 501.48 136.29  C 496.88 135.36 494.42 137.75 492.01 141.24  Z"></path>
<path d="  M 522.77 157.38  Q 517.16 163.17 512.26 169.72  Q 511.39 170.88 512.81 170.58  Q 513.54 170.43 514.17 170.04  Q 514.61 169.77 515.13 169.80  Q 524.05 170.34 526.44 179.09  C 526.89 180.71 527.36 182.90 527.07 184.56  Q 525.05 195.98 514.92 201.21  Q 505.80 205.92 499.19 198.80  C 495.32 194.63 495.27 188.59 500.42 185.46  A 1.02 1.02 0.0 0 1 501.57 185.53  C 503.21 186.81 503.90 189.34 502.36 191.05  Q 501.26 192.28 500.32 193.60  C 498.29 196.44 501.18 199.72 503.81 200.84  Q 506.87 202.14 509.57 200.55  C 514.89 197.43 519.43 190.66 522.09 185.38  C 524.68 180.25 525.34 175.16 519.73 171.61  Q 518.18 170.62 516.64 170.38  Q 515.33 170.17 513.48 170.91  Q 510.88 171.97 509.03 173.20  Q 506.16 175.11 508.38 172.47  L 526.99 150.35  Q 527.36 149.91 527.80 150.28  C 529.38 151.62 529.81 154.71 530.19 156.69  C 531.08 161.30 535.85 163.59 540.13 162.57  Q 541.53 162.23 543.11 161.82  Q 544.09 161.56 543.39 162.29  Q 542.32 163.42 540.79 164.04  C 533.80 166.89 525.39 166.03 523.57 157.61  Q 523.38 156.74 522.77 157.38  Z"></path>
<path d="  M 251.49 168.37  Q 251.27 167.74 251.35 167.09  Q 251.44 166.22 252.07 166.83  Q 256.35 170.96 259.52 175.46  Q 261.45 178.20 258.89 176.03  C 255.57 173.23 251.45 170.65 246.97 171.55  C 238.95 173.17 237.53 182.43 241.52 188.34  C 245.70 194.53 252.89 192.59 258.49 189.67  Q 262.95 187.34 265.94 186.83  Q 275.28 185.24 280.65 193.60  Q 282.89 197.08 283.70 201.40  Q 284.54 205.93 283.52 209.58  C 281.60 216.39 274.45 219.87 267.88 222.02  A 0.93 0.93 0.0 0 0 267.24 222.99  L 267.39 224.68  Q 267.48 225.64 266.82 224.94  Q 261.63 219.40 257.60 213.97  Q 255.80 211.55 258.20 213.38  C 262.83 216.92 266.74 220.46 273.16 218.73  C 287.77 214.78 282.08 190.06 267.43 194.91  Q 262.99 196.38 258.77 197.96  Q 246.40 202.58 240.27 191.81  C 236.88 185.85 236.18 176.75 242.40 172.39  C 244.95 170.60 248.01 170.22 250.97 169.36  A 0.78 0.77 -17.6 0 0 251.49 168.37  Z"></path>
<path d="  M 541.11 181.78  C 546.24 176.91 554.20 173.29 561.00 176.21  C 567.64 179.07 567.76 186.90 565.43 192.81  C 562.28 200.78 555.58 207.81 549.45 213.91  Q 545.57 217.77 541.10 220.47  C 537.12 222.87 531.44 223.95 527.46 221.52  C 518.73 216.19 521.71 205.70 526.58 198.82  Q 533.61 188.89 541.11 181.78  Z  M 530.62 202.56  C 527.85 206.28 520.04 217.23 527.78 220.21  C 531.32 221.57 535.40 219.36 537.86 217.08  Q 550.47 205.43 560.54 191.53  C 562.88 188.30 566.25 183.76 563.52 179.66  C 560.86 175.69 555.21 177.09 551.86 179.53  C 543.66 185.52 536.90 194.14 530.62 202.56  Z"></path>
<path d="  M 72.79 445.79  Q 74.57 445.81 76.21 445.18  Q 77.47 445.04 78.25 444.75  Q 96.84 437.90 110.00 423.87  C 118.83 414.46 126.58 402.44 131.67 390.27  Q 136.96 377.61 137.40 362.98  C 137.88 346.75 131.57 327.12 113.83 323.25  Q 101.60 320.59 91.01 326.79  Q 81.71 332.23 79.72 343.67  Q 79.62 344.25 80.20 344.34  C 89.62 345.80 98.51 348.03 105.70 354.03  Q 109.82 357.46 114.06 358.79  C 120.10 360.68 124.53 365.76 126.11 371.69  C 128.39 380.21 125.68 389.87 121.98 397.70  Q 111.22 420.47 92.03 435.52  Q 88.14 438.56 82.64 441.33  Q 82.58 441.36 82.55 441.31  L 82.55 441.30  Q 82.49 441.19 82.59 441.12  Q 97.61 431.25 107.55 415.89  C 116.18 402.56 121.30 387.25 116.95 372.00  Q 116.38 370.03 115.55 371.91  C 112.68 378.44 105.46 379.75 99.25 377.37  Q 86.28 372.40 81.17 361.58  Q 80.89 360.98 80.41 361.45  Q 76.50 365.29 75.77 369.39  Q 74.29 377.69 79.60 384.64  C 84.81 391.44 94.70 396.15 102.29 389.89  Q 103.06 389.26 102.80 390.22  C 99.66 402.02 86.60 397.28 81.00 390.75  C 73.59 382.11 71.32 368.58 79.75 359.86  Q 80.15 359.44 79.93 358.91  Q 77.68 353.60 78.02 346.72  Q 78.05 346.04 77.37 346.01  Q 49.09 344.72 34.21 366.99  Q 28.31 375.83 25.78 387.95  C 21.38 409.11 26.05 442.02 52.33 447.29  A 1.82 1.78 73.0 0 1 53.26 447.80  Q 54.28 448.86 55.73 449.13  C 59.23 449.76 62.83 450.06 66.50 449.75  Q 81.75 448.45 96.33 439.26  C 119.06 424.93 133.83 403.24 147.61 378.94  Q 158.55 359.67 169.72 340.08  C 180.55 321.09 193.71 302.06 210.54 287.62  Q 216.01 282.91 221.89 279.39  Q 222.41 279.07 222.39 278.48  Q 222.38 277.83 221.76 278.04  Q 203.61 284.29 185.91 291.87  Q 160.81 302.60 140.83 307.15  Q 117.16 312.54 94.22 309.12  C 75.54 306.34 51.44 298.71 55.08 274.26  C 55.21 273.40 55.41 272.55 56.09 271.97  Q 63.90 265.35 72.71 263.25  Q 81.33 261.20 86.03 267.94  Q 86.24 268.23 86.27 268.58  Q 86.28 268.72 86.26 268.86  Q 86.21 269.24 85.91 268.99  Q 85.36 268.53 84.62 268.32  Q 73.92 265.29 65.23 270.44  C 57.48 275.03 54.59 284.20 59.59 291.95  C 64.97 300.30 74.69 304.27 84.35 305.41  Q 92.54 306.38 100.67 305.58  Q 117.10 303.95 133.23 298.60  C 154.42 291.57 175.76 282.71 195.69 275.95  Q 215.36 269.28 231.83 267.97  Q 247.62 266.72 261.72 270.91  Q 265.03 271.89 261.58 272.06  Q 260.63 272.10 259.50 272.33  C 233.48 277.62 217.92 294.73 204.13 316.94  Q 190.28 339.24 175.89 365.12  C 164.84 385.00 152.23 404.50 137.74 420.75  C 120.08 440.54 96.85 453.33 70.72 454.64  Q 60.50 455.15 50.46 451.55  Q 40.95 448.14 33.31 440.48  Q 14.25 421.39 16.58 393.70  Q 18.17 374.91 30.74 361.35  C 39.85 351.51 52.97 345.76 66.35 344.22  Q 71.38 343.64 76.80 344.38  Q 77.67 344.50 77.93 343.65  C 82.03 330.06 91.58 320.85 106.60 320.89  Q 110.93 320.90 117.08 322.73  Q 123.15 324.53 127.82 326.12  Q 142.58 331.17 146.19 345.71  Q 148.70 355.82 145.83 369.06  C 142.90 382.51 135.73 394.89 127.43 406.26  C 113.55 425.28 93.46 444.56 68.95 447.61  C 67.85 447.75 66.44 447.28 65.58 447.76  C 64.24 448.51 61.28 448.12 59.87 447.87  Q 59.87 447.88 59.87 447.88  Q 59.86 447.87 59.88 447.87  Q 66.44 447.40 72.79 445.79  Z  M 103.54 353.66  C 96.11 349.30 88.61 347.58 80.04 346.15  A 0.55 0.55 0.0 0 0 79.40 346.64  C 79.06 350.18 80.59 354.38 81.65 357.77  A 0.33 0.33 0.0 0 0 82.14 357.95  Q 90.95 352.16 101.25 353.98  C 102.31 354.16 103.21 354.93 104.28 355.18  Q 104.94 355.33 104.60 354.75  Q 104.20 354.05 103.54 353.66  Z  M 115.37 366.54  C 109.63 354.44 93.60 350.93 82.90 359.10  Q 82.48 359.41 82.74 359.86  C 88.44 369.75 105.86 378.01 115.08 368.34  A 1.62 1.61 54.2 0 0 115.37 366.54  Z"></path>
<path d="  M 301.67 292.40  A 0.37 0.36 -10.0 0 0 302.22 292.78  Q 306.18 290.32 309.84 291.66  A 1.07 1.06 -58.0 0 1 310.24 293.40  C 307.14 296.64 301.74 297.02 297.75 295.62  C 293.26 294.05 292.98 289.85 295.80 286.70  C 297.71 284.55 299.57 282.53 299.95 279.53  Q 300.01 279.01 299.54 278.81  C 286.03 272.83 276.41 287.88 273.46 298.55  Q 271.65 305.08 272.83 311.11  Q 274.82 321.31 281.84 327.65  Q 290.47 335.45 303.00 333.34  Q 303.53 333.25 303.59 332.71  Q 304.25 325.72 304.09 320.03  Q 303.97 315.27 299.49 314.65  A 0.42 0.42 0.0 0 1 299.13 314.22  L 299.14 313.92  Q 299.14 313.78 299.28 313.78  L 320.50 313.83  A 0.38 0.37 8.0 0 1 320.87 314.31  C 320.16 316.96 319.36 319.46 319.57 322.28  Q 320.12 329.29 321.64 335.53  A 0.33 0.33 0.0 0 1 321.36 335.94  Q 316.77 336.51 311.91 337.08  Q 299.00 338.56 285.02 336.41  C 271.57 334.34 257.62 327.72 254.23 313.26  Q 252.81 307.25 254.21 301.63  C 257.78 287.36 268.71 278.82 282.95 275.81  Q 291.68 273.96 300.75 273.92  Q 308.37 273.88 315.78 274.04  A 0.91 0.91 0.0 0 1 316.58 275.35  C 313.95 280.70 309.00 283.66 304.65 287.50  Q 302.29 289.59 301.67 292.40  Z"></path>
<path d="  M 629.96 332.50  Q 629.71 330.68 630.03 328.76  C 630.56 325.68 630.53 322.10 630.22 319.06  Q 629.80 315.02 625.54 314.66  Q 625.36 314.64 625.38 314.47  L 625.40 314.18  Q 625.43 313.78 625.82 313.78  L 646.57 313.82  Q 647.41 313.83 647.15 314.62  C 646.29 317.18 645.56 319.76 645.82 322.55  Q 646.42 329.09 647.81 335.11  Q 647.96 335.78 647.29 335.89  Q 629.91 338.79 614.36 336.89  C 599.92 335.13 584.11 328.95 580.47 313.07  Q 578.98 306.56 580.76 300.47  C 585.76 283.33 600.55 276.11 617.27 274.50  Q 628.77 273.38 642.31 274.14  A 0.67 0.66 12.5 0 1 642.90 275.05  C 639.94 282.48 631.32 284.55 628.27 291.17  Q 627.22 293.46 629.43 292.26  Q 632.46 290.62 635.83 291.48  A 1.22 1.22 0.0 0 1 636.41 293.50  C 633.58 296.51 628.16 296.94 624.48 295.86  Q 620.12 294.57 620.31 290.51  C 620.44 287.89 623.13 285.57 624.62 283.57  C 625.48 282.42 625.90 281.11 626.26 279.74  A 0.77 0.77 0.0 0 0 625.84 278.84  C 611.64 272.35 601.82 289.33 599.24 300.56  C 597.10 309.87 600.62 320.23 607.21 326.77  Q 616.19 335.68 629.40 333.29  Q 630.06 333.17 629.96 332.50  Z"></path>
<path d="  M 456.87 316.82  A 0.40 0.40 0.0 0 0 457.00 317.52  C 468.31 320.79 475.98 329.94 484.10 337.88  Q 488.67 342.35 496.03 345.78  Q 496.56 346.02 497.02 345.66  Q 500.07 343.23 504.45 344.14  A 1.68 1.67 18.4 0 1 505.63 346.49  C 504.77 348.32 502.50 348.44 500.76 348.61  Q 498.19 348.86 500.60 349.79  Q 501.21 350.02 501.93 350.07  A 1.17 1.16 -84.8 0 1 503.01 351.37  C 502.54 355.22 501.79 359.07 500.63 362.79  Q 497.51 372.77 496.13 380.96  Q 495.56 384.40 497.78 381.71  Q 498.47 380.88 499.35 380.13  Q 499.84 379.72 500.47 379.86  Q 502.58 380.35 503.60 382.37  Q 503.92 383.00 503.69 383.66  Q 501.86 388.95 496.93 389.12  C 489.95 389.37 489.70 381.73 490.43 376.79  Q 491.20 371.56 491.81 366.76  Q 492.19 363.78 491.70 360.70  C 490.96 356.03 485.91 354.64 481.96 356.03  C 478.44 357.26 477.48 361.13 476.75 364.44  Q 473.77 378.01 484.02 386.64  C 491.66 393.08 500.70 400.09 504.30 409.96  Q 507.84 419.64 505.19 429.47  Q 501.30 443.92 485.69 445.50  C 479.32 446.15 472.51 444.58 467.83 440.26  C 461.29 434.24 459.84 422.72 463.02 415.04  C 464.76 410.82 469.40 409.50 473.60 410.63  C 475.84 411.23 478.11 413.28 477.76 415.85  A 1.48 1.44 -15.5 0 1 477.20 416.81  C 475.01 418.44 473.54 419.84 473.02 422.74  Q 471.73 429.97 475.55 435.42  Q 478.04 438.97 482.13 438.64  C 488.59 438.11 491.29 429.95 492.00 424.66  Q 493.22 415.57 489.03 408.34  C 481.84 395.96 464.59 390.84 462.79 375.46  C 461.15 361.42 467.65 350.78 482.55 349.14  Q 485.22 348.84 482.77 347.75  C 465.97 340.22 456.31 323.89 439.05 316.90  A 0.56 0.56 0.0 0 0 438.28 317.41  Q 438.26 320.26 437.90 323.16  Q 437.29 328.11 438.41 332.62  Q 439.18 335.71 441.65 336.71  Q 443.23 337.35 441.53 337.35  L 416.04 337.36  Q 414.93 337.36 415.87 336.75  Q 416.91 336.08 418.45 336.08  Q 419.69 336.07 419.77 334.84  Q 421.12 314.89 420.63 294.67  Q 420.56 291.93 420.40 289.39  Q 420.23 286.77 420.27 284.11  C 420.31 281.59 419.54 279.27 419.82 276.72  A 0.76 0.76 0.0 0 0 419.23 275.89  L 415.74 275.13  Q 415.55 275.09 415.56 274.90  L 415.56 274.61  Q 415.57 274.40 415.78 274.38  C 425.11 273.65 434.18 274.14 443.44 274.49  Q 454.21 274.91 464.21 277.02  C 473.96 279.08 487.42 284.50 487.81 296.44  C 488.02 303.01 482.14 308.05 476.84 310.80  Q 467.55 315.63 457.70 316.50  Q 457.24 316.54 456.87 316.82  Z  M 438.03 278.71  L 438.15 312.61  A 1.16 1.16 0.0 0 0 439.31 313.76  L 440.23 313.76  A 30.58 17.91 -0.2 0 0 470.75 295.74  L 470.75 295.34  A 30.58 17.91 -0.2 0 0 440.11 277.54  L 439.19 277.54  A 1.16 1.16 0.0 0 0 438.03 278.71  Z"></path>
<path d="  M 399.82 321.21  Q 401.26 325.83 402.87 330.14  Q 404.76 335.23 409.09 336.66  Q 411.26 337.37 408.98 337.37  L 383.56 337.34  Q 381.69 337.33 383.39 336.54  Q 384.46 336.04 385.68 335.98  A 0.89 0.89 0.0 0 0 386.51 334.96  Q 385.62 329.19 383.17 323.82  Q 382.98 323.40 382.52 323.47  Q 379.68 323.88 376.95 324.07  Q 368.86 324.64 360.83 325.79  C 355.49 326.56 348.93 327.84 346.14 332.96  A 2.16 2.15 20.2 0 0 347.60 336.10  Q 348.32 336.25 348.86 336.80  Q 349.52 337.48 348.57 337.44  Q 338.60 337.02 328.01 337.53  Q 327.56 337.55 327.57 337.10  L 327.57 336.81  A 0.29 0.29 0.0 0 1 327.85 336.53  L 330.38 336.43  Q 330.94 336.41 331.34 336.02  C 335.69 331.84 339.44 324.90 342.13 319.17  Q 348.23 306.16 355.34 292.04  Q 359.27 284.24 361.68 276.68  A 0.72 0.72 0.0 0 0 361.16 275.76  L 358.72 275.16  Q 358.24 275.04 358.48 274.62  Q 358.60 274.39 358.88 274.39  Q 372.02 274.34 387.17 274.34  Q 387.55 274.34 387.65 274.69  Q 387.79 275.19 387.29 275.30  L 385.30 275.77  Q 384.75 275.90 384.85 276.45  C 387.34 289.63 392.61 301.37 397.20 313.74  A 0.53 0.53 0.0 0 0 397.97 314.01  Q 400.11 312.76 400.62 310.34  A 0.41 0.41 0.0 0 1 401.17 310.04  C 407.05 312.23 407.07 319.86 400.29 320.51  Q 399.62 320.57 399.82 321.21  Z  M 351.99 323.72  C 360.79 320.19 370.65 318.97 380.14 317.99  Q 380.96 317.90 380.70 317.11  Q 375.73 302.31 369.84 287.17  Q 369.17 285.46 368.60 287.20  Q 368.44 287.69 368.23 288.13  Q 363.11 299.16 356.73 311.56  Q 354.14 316.60 351.40 323.13  A 0.45 0.45 0.0 0 0 351.99 323.72  Z"></path>
<path d="  M 564.22 321.14  Q 566.00 327.44 567.97 331.65  Q 569.65 335.25 573.16 336.51  Q 575.53 337.36 573.01 337.36  L 547.52 337.35  A 0.30 0.30 0.0 0 1 547.32 336.83  Q 548.21 336.01 549.35 336.17  A 1.30 1.30 0.0 0 0 550.82 334.70  Q 550.04 329.26 547.43 323.71  Q 547.17 323.16 546.60 323.38  C 546.11 323.57 545.56 323.75 545.04 323.78  Q 533.74 324.54 524.85 325.86  C 519.66 326.63 514.16 327.71 510.80 332.31  C 509.32 334.33 510.92 336.21 513.15 336.44  Q 513.36 336.46 513.36 336.67  L 513.37 336.98  Q 513.37 337.45 512.91 337.43  Q 502.46 337.05 492.20 337.50  A 0.33 0.33 0.0 0 1 491.85 337.15  L 491.86 336.78  A 0.39 0.39 0.0 0 1 492.33 336.42  Q 495.18 337.04 496.77 335.11  Q 502.79 327.76 507.61 316.63  Q 513.55 302.88 518.63 294.05  Q 523.54 285.49 525.91 276.89  Q 526.06 276.35 525.70 275.91  Q 524.90 274.94 523.14 275.31  Q 522.83 275.37 522.82 275.05  L 522.81 274.66  Q 522.80 274.40 523.06 274.40  L 551.87 274.33  Q 552.04 274.33 552.10 274.50  L 552.24 274.93  Q 552.31 275.17 552.07 275.22  L 549.74 275.69  A 0.66 0.65 -10.9 0 0 549.22 276.44  C 551.54 289.44 557.19 301.63 561.48 313.61  A 0.79 0.79 0.0 0 0 562.76 313.93  Q 564.37 312.47 564.94 310.52  A 0.59 0.59 0.0 0 1 565.73 310.14  Q 570.50 312.09 569.68 316.43  Q 568.96 320.23 564.73 320.43  Q 564.03 320.47 564.22 321.14  Z  M 516.29 323.66  C 525.20 320.27 534.78 319.07 544.66 318.01  Q 545.46 317.92 545.19 317.16  L 534.18 286.66  A 0.40 0.39 -42.4 0 0 533.45 286.63  C 527.63 298.87 521.04 310.71 515.74 323.08  Q 515.34 324.02 516.29 323.66  Z"></path>
<path d="  M 703.10 292.57  Q 705.48 291.26 707.87 290.99  Q 709.49 290.81 711.12 291.93  Q 711.56 292.23 711.29 292.68  C 708.44 297.50 701.39 296.70 697.09 294.59  Q 693.79 292.98 694.33 289.36  C 694.71 286.82 696.35 284.46 696.45 282.05  Q 696.63 277.70 692.06 277.30  Q 687.32 276.88 682.23 277.61  A 2.60 2.47 48.6 0 1 681.10 277.51  Q 680.24 277.23 679.38 277.24  Q 678.75 277.24 678.77 277.88  C 678.84 281.40 678.38 284.85 678.41 288.41  Q 678.49 300.58 678.52 311.34  Q 678.52 311.74 678.92 311.82  Q 686.63 313.30 693.94 309.92  Q 694.50 309.65 694.51 310.28  L 694.52 317.46  Q 694.52 318.27 693.88 317.78  Q 690.80 315.41 686.84 315.52  Q 683.53 315.62 679.75 315.07  A 0.90 0.90 0.0 0 0 678.72 315.91  Q 678.21 324.58 678.57 333.85  Q 678.59 334.37 679.11 334.44  Q 685.39 335.32 691.57 334.03  Q 703.46 331.54 704.77 319.84  Q 704.89 318.72 706.00 318.55  L 710.85 317.81  Q 711.82 317.66 711.41 318.55  Q 707.60 326.81 711.62 337.07  A 0.15 0.14 78.8 0 1 711.49 337.27  L 656.44 337.31  Q 655.90 337.32 656.21 336.87  Q 656.32 336.72 656.49 336.66  Q 657.95 336.08 659.59 335.96  A 0.86 0.86 0.0 0 0 660.39 335.14  Q 660.64 329.30 661.00 323.12  Q 661.05 322.28 661.06 321.50  Q 661.32 305.32 661.02 290.25  Q 660.99 289.10 660.97 288.00  Q 660.83 281.96 660.31 276.57  Q 660.25 275.92 659.61 275.80  L 656.42 275.17  Q 656.33 275.15 656.29 275.06  L 656.14 274.63  Q 656.03 274.31 656.37 274.31  L 709.95 274.32  A 0.77 0.77 0.0 0 1 710.68 275.34  Q 708.96 280.33 705.79 284.57  Q 703.22 288.00 702.56 292.20  Q 702.44 292.94 703.10 292.57  Z"></path>
<path d="  M 557.51 382.10  Q 557.38 383.74 558.49 382.53  L 560.57 380.25  A 1.83 1.83 0.0 0 1 563.31 380.30  C 566.50 384.07 563.89 388.49 559.47 388.87  Q 553.34 389.40 551.90 384.12  C 551.42 382.39 551.50 378.91 551.75 377.10  Q 552.50 371.79 553.31 366.25  C 553.58 364.36 553.53 360.64 552.43 358.74  Q 549.97 354.47 544.25 355.76  C 539.82 356.76 538.19 361.65 537.64 365.69  Q 535.83 379.17 545.97 387.25  C 559.12 397.72 570.30 408.00 567.07 426.60  C 565.33 436.59 558.50 443.64 548.25 445.23  Q 543.57 445.95 539.26 445.16  C 530.68 443.56 524.49 436.55 522.82 428.09  Q 522.01 423.97 523.18 419.46  C 525.31 411.22 533.36 405.63 539.14 415.45  Q 539.52 416.09 538.92 416.53  C 536.57 418.22 534.86 419.71 534.43 422.82  Q 533.36 430.47 536.78 435.29  Q 539.36 438.93 543.36 438.63  C 549.18 438.18 552.16 431.53 553.11 426.37  Q 555.15 415.28 549.83 407.04  C 544.72 399.13 535.25 395.16 529.27 387.73  Q 523.61 380.70 523.75 371.27  Q 523.85 364.39 526.93 359.39  C 534.40 347.29 551.49 346.89 563.52 350.17  Q 564.63 350.47 564.44 351.61  Q 562.96 360.50 559.92 370.12  Q 558.01 376.18 557.51 382.10  Z"></path>
<path d="  M 271.09 416.59  A 0.33 0.32 -77.5 0 0 270.64 416.88  Q 270.39 424.00 270.22 431.07  Q 270.01 439.74 274.23 443.78  Q 274.81 444.32 274.02 444.44  Q 268.24 445.31 265.40 445.06  Q 258.82 444.48 252.92 444.98  Q 252.28 445.04 252.35 444.39  Q 252.44 443.66 253.11 443.33  Q 256.08 441.90 256.52 438.51  Q 257.05 434.34 256.94 431.15  C 256.33 414.06 256.75 396.32 256.70 377.62  C 256.68 369.93 256.12 362.32 255.54 354.62  C 255.34 351.88 252.87 352.81 252.12 351.17  A 0.49 0.49 0.0 0 1 252.54 350.47  C 261.63 350.09 270.88 349.83 279.81 350.91  C 295.13 352.75 305.19 361.59 307.79 377.42  Q 310.13 391.63 302.73 403.87  Q 297.70 412.19 288.92 415.11  A 0.46 0.45 -30.0 0 0 288.72 415.84  Q 290.53 417.90 291.56 419.92  Q 295.05 426.83 299.13 434.63  C 300.35 436.97 303.40 441.54 306.21 442.54  C 307.30 442.93 308.86 443.17 309.51 444.25  Q 309.85 444.82 309.18 444.82  L 287.69 444.75  Q 286.08 444.75 287.12 443.51  Q 287.51 443.03 288.03 442.69  Q 288.66 442.27 288.36 441.57  C 284.72 432.96 280.20 420.44 271.09 416.59  Z  M 270.39 355.74  L 270.59 411.30  A 0.21 0.21 0.0 0 0 270.80 411.51  L 271.91 411.51  A 26.71 22.74 89.8 0 0 294.55 384.72  L 294.55 382.16  A 26.71 22.74 89.8 0 0 271.71 355.53  L 270.60 355.53  A 0.21 0.21 0.0 0 0 270.39 355.74  Z"></path>
<path d="  M 392.10 352.23  Q 391.17 352.08 390.59 351.38  A 0.56 0.55 -19.8 0 1 391.02 350.47  L 411.50 350.51  Q 414.90 350.52 411.98 352.39  C 409.40 354.04 409.23 356.43 408.67 359.23  Q 408.43 360.40 408.45 361.74  Q 408.85 388.15 408.57 414.49  Q 408.52 419.18 409.63 426.09  Q 410.86 433.77 416.55 437.49  A 1.63 1.62 -44.8 0 0 418.34 437.49  C 423.74 433.97 425.49 427.95 426.24 421.73  Q 427.09 414.58 426.73 406.44  C 426.24 395.48 426.28 384.46 426.76 373.47  Q 427.08 366.25 426.37 358.92  Q 425.92 354.24 422.56 351.75  Q 420.86 350.50 422.97 350.50  L 442.75 350.50  Q 445.87 350.50 443.33 352.32  C 440.38 354.44 439.91 357.70 439.91 361.51  C 439.88 377.43 439.80 393.23 440.66 408.98  Q 441.13 417.72 440.14 426.01  C 438.42 440.24 421.08 448.19 408.62 442.88  Q 396.82 437.84 395.00 424.76  Q 393.73 415.57 394.48 400.24  Q 395.26 384.49 395.50 372.60  Q 395.68 363.43 393.81 353.90  A 2.10 2.09 89.2 0 0 392.10 352.23  Z"></path>
<path d="  M 225.81 413.75  Q 225.96 414.85 226.78 414.09  L 227.33 413.57  A 1.83 1.83 0.0 0 0 227.84 411.74  L 226.95 408.60  Q 226.73 407.81 227.52 408.01  Q 232.44 409.23 233.25 413.74  Q 234.60 421.27 228.46 424.32  Q 228.04 424.52 228.08 424.99  Q 228.51 431.14 229.68 436.80  Q 230.70 441.77 233.35 443.00  Q 237.48 444.90 232.94 444.86  Q 224.16 444.77 213.55 444.85  Q 212.78 444.85 212.72 444.08  L 212.69 443.77  Q 212.65 443.23 213.17 443.15  Q 214.34 442.95 215.16 442.23  Q 215.60 441.85 215.59 441.27  Q 215.41 432.38 213.29 423.14  Q 213.18 422.66 212.75 422.44  C 202.97 417.30 193.36 423.39 191.38 433.55  Q 190.58 437.66 191.29 442.11  A 1.05 1.05 0.0 0 0 192.33 443.00  Q 193.37 443.00 193.55 443.95  A 0.68 0.68 0.0 0 1 192.83 444.75  Q 190.84 444.61 189.00 444.97  Q 187.49 445.27 185.99 445.07  Q 181.25 444.43 176.67 445.00  Q 176.05 445.08 175.99 444.46  Q 175.95 443.93 176.34 443.59  Q 177.17 442.86 178.38 442.79  Q 179.43 442.73 179.73 441.72  C 188.19 413.06 193.68 385.03 198.92 354.46  Q 199.04 353.79 198.52 353.33  L 196.64 351.66  Q 195.49 350.64 197.02 350.62  Q 207.93 350.42 219.13 350.61  Q 219.63 350.62 219.63 351.11  L 219.63 351.51  A 0.67 0.66 -2.4 0 1 219.01 352.17  Q 217.13 352.31 217.16 354.08  Q 217.39 367.24 220.36 381.95  Q 223.94 399.69 225.81 413.75  Z  M 211.24 414.84  A 0.42 0.42 0.0 0 0 211.67 414.35  L 205.11 374.92  A 0.42 0.42 0.0 0 0 204.29 374.90  L 195.34 416.59  A 0.42 0.42 0.0 0 0 195.88 417.08  L 202.92 414.66  A 0.42 0.42 0.0 0 1 203.07 414.64  L 211.24 414.84  Z"></path>
<path d="  M 373.0127 422.5994  A 21.68 21.68 0.0 0 1 351.2572 444.2036  L 349.0572 444.1959  A 21.68 21.68 0.0 0 1 327.4530 422.4403  L 327.6273 372.5206  A 21.68 21.68 0.0 0 1 349.3828 350.9164  L 351.5828 350.9241  A 21.68 21.68 0.0 0 1 373.1870 372.6797  L 373.0127 422.5994  Z  M 358.98 421.91  Q 359.28 419.14 359.26 416.81  Q 359.06 398.87 359.29 380.38  Q 359.33 377.47 359.07 374.66  C 358.42 367.65 357.19 361.59 350.71 357.90  Q 350.20 357.61 349.71 357.94  Q 345.11 361.02 343.52 365.46  C 340.61 373.59 341.40 383.03 341.62 391.58  C 341.88 401.63 341.26 411.38 341.86 421.46  C 342.23 427.76 344.02 434.06 349.54 437.54  Q 349.97 437.81 350.41 437.58  C 356.45 434.49 358.23 428.85 358.98 421.91  Z"></path>
<path d="  M 635.04 425.04  Q 635.58 429.21 636.08 433.62  C 636.45 436.94 637.49 441.55 640.58 443.06  Q 644.30 444.88 640.16 444.85  Q 631.15 444.79 620.35 444.84  A 0.63 0.63 0.0 0 1 619.72 444.24  L 619.71 443.96  Q 619.67 443.21 620.41 443.07  Q 621.29 442.91 622.03 442.42  Q 622.51 442.10 622.53 441.52  Q 622.72 433.97 620.49 423.73  C 620.16 422.18 619.28 422.10 618.01 421.65  Q 611.58 419.34 606.82 421.84  Q 601.10 424.84 598.81 431.77  C 597.78 434.88 598.11 438.64 598.17 441.85  A 1.10 1.09 1.4 0 0 599.19 442.92  Q 599.87 442.97 600.37 443.48  A 0.69 0.69 0.0 0 1 599.88 444.65  Q 597.96 444.66 596.01 444.97  Q 594.29 445.24 592.71 445.03  Q 588.34 444.45 583.59 445.00  A 0.61 0.61 0.0 0 1 582.91 444.39  Q 582.91 443.90 583.31 443.60  Q 584.17 442.92 585.40 442.76  Q 586.53 442.62 586.84 441.52  Q 594.78 413.87 600.10 386.28  Q 603.15 370.46 605.93 354.13  Q 606.05 353.41 605.46 352.98  L 603.88 351.83  Q 602.15 350.58 604.28 350.57  L 625.80 350.53  Q 626.58 350.53 626.61 351.30  L 626.62 351.60  A 0.49 0.48 -4.7 0 1 626.20 352.09  Q 625.22 352.21 624.50 352.83  A 1.01 1.00 -20.7 0 0 624.14 353.62  Q 624.39 364.42 625.90 373.58  Q 628.07 386.73 631.03 401.18  Q 631.65 404.23 632.77 413.79  Q 632.86 414.62 633.58 414.21  Q 634.05 413.94 634.38 413.52  A 2.27 2.25 56.6 0 0 634.78 411.53  L 633.96 408.58  Q 633.79 407.95 634.44 408.06  C 641.53 409.17 641.80 417.65 638.26 422.39  Q 637.32 423.66 635.69 424.07  A 0.89 0.89 0.0 0 0 635.04 425.04  Z  M 618.22 414.86  A 0.42 0.42 0.0 0 0 618.65 414.38  L 612.14 374.86  A 0.42 0.42 0.0 0 0 611.31 374.84  L 602.33 416.60  A 0.42 0.42 0.0 0 0 602.87 417.09  L 610.05 414.63  A 0.42 0.42 0.0 0 1 610.20 414.60  L 618.22 414.86  Z"></path>
<path d="  M 693.67 356.18  Q 693.61 366.79 693.62 376.23  C 693.62 377.25 693.35 378.18 693.34 379.23  Q 693.17 401.29 693.39 419.23  Q 693.48 427.42 694.47 440.77  C 694.57 442.13 695.43 442.82 696.68 443.13  Q 697.85 443.41 697.71 444.47  A 0.38 0.38 0.0 0 1 697.33 444.80  L 675.72 444.80  Q 675.31 444.80 675.26 444.39  Q 675.21 443.97 675.49 443.61  Q 675.76 443.27 676.17 443.11  Q 676.97 442.80 677.72 442.56  Q 678.38 442.34 678.44 441.65  Q 679.46 430.58 679.61 422.37  Q 680.06 397.47 679.46 370.34  C 679.35 365.54 679.85 360.89 679.71 356.02  Q 679.69 355.37 679.04 355.37  Q 677.99 355.37 676.94 355.38  C 670.49 355.38 669.68 361.40 670.32 366.49  Q 671.11 372.77 671.63 378.99  C 671.76 380.60 671.55 382.45 671.20 384.03  C 670.34 387.96 666.06 390.22 662.39 388.59  Q 659.66 387.38 658.34 384.56  C 656.93 381.58 659.82 379.39 662.57 379.90  Q 663.05 379.99 663.28 380.42  L 664.49 382.70  A 0.44 0.42 -1.4 0 0 664.70 382.89  Q 665.23 383.13 665.38 382.75  Q 665.47 382.54 665.45 382.31  Q 664.70 374.70 662.96 369.61  Q 659.97 360.88 658.59 351.82  Q 658.39 350.50 659.72 350.50  L 714.01 350.50  A 0.76 0.76 0.0 0 1 714.76 351.40  C 713.35 359.00 711.17 366.25 709.05 373.83  C 708.37 376.22 708.28 378.80 707.77 381.29  Q 707.28 383.62 708.89 381.87  L 710.14 380.51  Q 711.22 379.33 712.63 380.09  Q 716.23 382.01 714.29 385.29  C 712.37 388.56 708.20 389.94 704.92 387.82  C 701.32 385.49 701.33 381.56 701.54 377.67  Q 701.69 374.76 702.17 371.79  Q 703.02 366.57 702.76 362.25  Q 702.33 354.94 694.40 355.41  Q 693.68 355.46 693.67 356.18  Z"></path>
<path d="  M 240.46 547.01  Q 241.63 544.70 239.50 546.17  Q 234.38 549.69 228.01 549.53  Q 219.45 549.30 217.89 540.49  Q 217.65 539.13 218.23 538.31  Q 218.50 537.93 218.50 537.47  Q 218.51 535.04 219.80 533.31  Q 221.22 531.40 220.66 533.71  C 220.45 534.59 219.68 535.04 219.43 535.93  C 219.12 537.02 218.55 538.10 218.71 539.24  C 219.33 543.94 222.87 549.60 228.21 547.93  C 234.54 545.94 239.92 539.54 241.80 533.57  C 243.45 528.29 239.73 524.74 234.86 524.14  Q 234.69 524.12 234.73 523.94  L 234.78 523.69  Q 234.79 523.63 234.86 523.64  Q 237.93 524.07 240.57 525.41  C 246.70 528.52 253.41 523.32 256.00 517.96  Q 257.36 515.14 255.92 512.79  C 254.38 510.29 251.17 508.65 248.41 510.20  C 246.74 511.14 245.96 513.42 244.87 514.98  Q 243.91 516.36 242.80 515.09  L 242.13 514.32  A 1.94 1.93 44.1 0 1 242.09 511.81  C 244.99 508.31 250.77 506.91 254.75 509.79  C 259.97 513.56 259.64 520.90 255.55 525.39  Q 250.73 530.70 243.49 527.66  Q 242.16 527.10 242.75 528.42  Q 245.39 534.25 243.69 539.95  Q 243.42 540.85 244.24 540.40  Q 244.80 540.09 245.20 539.58  C 251.00 532.13 259.66 522.97 269.94 523.97  C 274.50 524.41 278.01 527.74 277.26 532.57  Q 276.68 536.26 272.70 538.04  A 1.52 1.51 56.2 0 1 270.98 537.70  Q 269.40 536.04 271.19 534.17  C 272.51 532.79 274.92 530.57 275.35 528.62  A 2.35 2.35 0.0 0 0 273.87 525.92  Q 267.35 523.52 261.97 528.34  Q 257.33 532.48 253.01 537.58  A 0.35 0.35 0.0 0 0 253.21 538.15  Q 254.29 538.37 255.22 537.66  Q 255.64 537.33 256.16 537.45  Q 261.90 538.70 264.32 543.89  Q 266.02 547.53 264.32 552.83  C 262.10 559.79 255.44 565.79 247.71 565.61  C 238.26 565.39 237.34 553.18 240.46 547.01  Z  M 244.42 563.56  C 252.80 566.49 262.19 549.64 262.24 542.90  A 1.38 1.37 -67.2 0 0 261.85 541.94  C 251.52 531.54 242.32 550.45 240.97 558.69  C 240.59 560.98 242.47 562.88 244.42 563.56  Z"></path>
<path d="  M 567.66 557.55  L 567.72 558.27  Q 567.94 560.49 566.47 558.81  Q 563.29 555.15 560.60 552.20  Q 559.94 551.48 559.42 550.48  Q 559.13 549.92 559.64 550.30  Q 566.10 555.20 573.52 553.51  Q 577.63 552.57 580.12 548.84  C 580.96 547.57 580.57 546.32 581.21 544.98  Q 581.41 544.56 581.34 544.10  Q 580.12 535.22 572.31 532.89  C 570.08 532.22 567.12 532.75 565.20 533.63  C 560.92 535.60 555.41 538.07 550.96 536.83  C 544.14 534.94 539.79 525.46 541.91 518.97  Q 544.00 512.56 551.22 511.83  Q 553.70 511.59 553.64 509.26  Q 553.61 508.39 554.20 509.03  L 560.44 515.84  Q 560.51 515.91 560.44 515.97  L 560.23 516.19  Q 560.07 516.36 559.89 516.22  Q 554.09 511.74 547.29 514.53  C 541.10 517.06 540.85 524.46 545.24 528.69  C 552.94 536.08 560.79 526.05 569.15 526.39  Q 579.35 526.81 581.78 537.76  Q 582.21 539.70 582.18 543.78  Q 582.18 544.31 581.87 544.73  C 581.15 545.72 581.44 546.96 580.86 548.20  C 578.91 552.37 574.87 555.91 570.14 556.36  Q 569.20 556.45 568.26 556.69  Q 567.59 556.87 567.66 557.55  Z"></path>
<path d="  M 533.78 551.50  Q 532.61 552.24 532.27 553.03  Q 531.96 553.73 532.36 554.34  Q 538.46 563.52 544.28 572.60  Q 544.56 573.04 545.08 573.04  Q 545.69 573.03 546.11 572.55  Q 546.45 572.16 546.91 571.94  Q 551.16 569.85 553.09 568.59  C 558.94 564.76 557.88 558.84 555.94 553.19  Q 554.59 549.24 556.91 552.71  Q 559.79 557.01 563.03 562.36  A 0.47 0.47 0.0 0 1 562.84 563.03  Q 560.30 564.32 557.99 565.98  Q 547.80 573.29 536.87 579.80  Q 536.66 579.92 536.52 579.71  L 536.37 579.48  Q 536.30 579.37 536.41 579.29  L 539.80 577.01  A 1.10 1.10 0.0 0 0 540.10 575.49  L 515.95 538.96  A 0.92 0.92 0.0 0 0 514.63 538.73  L 510.92 541.49  Q 510.78 541.59 510.66 541.48  L 510.37 541.22  A 0.27 0.27 0.0 0 1 510.39 540.80  Q 522.33 531.92 535.24 524.53  A 0.62 0.62 0.0 0 1 536.09 524.78  Q 538.38 529.10 541.44 532.79  A 0.24 0.23 65.4 0 1 541.30 533.17  L 541.05 533.21  A 1.32 1.30 -27.6 0 1 539.90 532.86  Q 532.88 526.02 527.51 530.06  Q 523.78 532.86 520.49 535.20  Q 519.90 535.62 520.30 536.22  L 530.51 551.59  Q 530.82 552.06 531.38 552.05  Q 532.54 552.04 533.78 551.50  Z"></path>
<path d="  M 284.46 539.69  Q 281.55 539.45 278.32 540.11  Q 277.30 540.32 276.36 540.21  Q 275.29 540.07 276.31 539.72  Q 280.45 538.28 284.67 538.19  C 286.71 538.14 288.85 537.66 290.70 536.83  Q 291.38 536.52 291.13 537.22  C 289.45 541.87 286.61 546.43 283.89 550.57  Q 280.66 555.51 277.95 560.20  Q 272.87 569.02 267.85 577.15  Q 267.50 577.71 268.04 578.09  Q 269.90 579.39 272.04 580.66  Q 272.09 580.69 272.07 580.74  L 271.96 580.99  Q 271.79 581.38 271.39 581.23  Q 268.96 580.28 267.08 578.88  C 264.43 576.89 261.19 575.92 258.92 573.51  Q 257.91 572.44 259.29 572.97  Q 260.88 573.58 262.19 574.84  A 1.38 1.37 37.2 0 0 264.32 574.55  L 284.81 540.37  Q 285.18 539.75 284.46 539.69  Z"></path>
<path d="  M 533.78 551.50  Q 537.79 548.41 537.17 543.27  Q 537.05 542.29 535.79 538.86  A 0.05 0.05 0.0 0 1 535.83 538.79  Q 535.96 538.77 536.09 538.76  Q 536.22 538.74 536.30 538.85  Q 541.36 546.43 546.18 553.70  Q 546.90 554.78 545.88 553.97  C 542.40 551.24 538.19 548.68 533.78 551.50  Z"></path>
<path d="  M 312.19 555.63  A 0.72 0.72 0.0 0 0 311.92 554.62  C 307.48 552.19 298.57 546.19 293.94 550.91  Q 292.25 552.64 293.31 550.51  L 297.30 542.41  A 0.66 0.65 -63.8 0 1 298.17 542.11  L 315.68 550.51  A 0.39 0.39 0.0 0 1 315.85 551.04  C 308.99 564.53 298.06 575.48 286.71 585.70  C 284.56 587.63 281.67 588.95 279.49 586.01  Q 279.16 585.56 279.49 585.12  Q 281.39 582.56 284.23 581.28  Q 301.25 573.63 312.19 555.63  Z"></path>
<path d="  M 510.44 591.31  L 490.85 551.58  A 0.93 0.93 0.0 0 0 489.47 551.24  Q 488.27 552.13 487.19 552.61  Q 483.96 554.07 486.90 552.10  Q 492.30 548.48 499.51 545.83  Q 500.37 545.52 499.75 546.19  Q 498.54 547.47 496.65 547.78  A 1.24 1.23 72.3 0 0 495.74 549.55  L 515.14 589.00  A 0.99 0.97 68.4 0 0 516.30 589.51  C 520.56 588.20 525.42 585.42 527.74 581.56  Q 531.06 576.00 528.47 569.14  Q 528.45 569.09 528.51 569.06  L 528.83 568.92  Q 529.13 568.78 529.27 569.08  L 534.64 580.60  Q 534.90 581.16 534.35 581.44  Q 525.39 586.02 517.22 590.21  Q 512.47 592.65 506.89 594.72  Q 506.65 594.81 506.58 594.56  L 506.51 594.29  Q 506.48 594.22 506.56 594.19  Q 508.61 593.38 510.11 592.45  Q 510.79 592.03 510.44 591.31  Z"></path>
<path d="  M 309.0670 600.5390  A 25.22 12.94 109.8 0 1 305.4350 572.4267  A 25.22 12.94 109.8 0 1 326.1530 553.0810  A 25.22 12.94 109.8 0 1 329.7850 581.1933  A 25.22 12.94 109.8 0 1 309.0670 600.5390  Z  M 325.49 576.76  C 326.96 572.62 333.86 553.72 323.94 554.17  C 319.71 554.36 316.88 559.37 315.43 562.87  Q 311.42 572.49 308.27 581.51  C 306.81 585.68 302.98 599.64 311.35 599.48  C 315.57 599.39 318.51 594.28 319.89 591.08  Q 322.67 584.68 325.49 576.76  Z"></path>
<path d="  M 457.12 562.88  Q 457.59 567.51 458.68 572.05  Q 462.83 589.36 466.87 606.18  Q 467.02 606.78 467.62 606.66  Q 469.86 606.23 472.13 605.30  Q 472.19 605.27 472.21 605.33  L 472.32 605.58  Q 472.52 606.03 472.06 606.21  Q 464.83 608.95 456.94 609.71  Q 456.81 609.72 456.78 609.59  L 456.71 609.24  Q 456.64 608.89 456.99 608.85  L 460.79 608.40  Q 461.92 608.27 461.66 607.16  L 451.40 563.88  A 0.48 0.45 88.7 0 0 451.05 563.53  Q 449.76 563.24 448.68 564.02  Q 448.26 564.32 447.74 564.32  Q 446.97 564.32 446.25 564.64  Q 445.92 564.79 445.82 564.44  L 445.76 564.19  Q 445.74 564.13 445.80 564.12  Q 447.23 563.74 448.50 563.25  Q 449.75 562.77 451.16 562.45  Q 458.76 560.74 466.24 559.09  Q 469.61 558.35 473.80 556.42  Q 474.06 556.31 474.26 556.50  Q 474.37 556.60 474.42 556.74  Q 474.48 556.91 474.34 557.03  Q 472.66 558.52 470.27 558.26  A 0.86 0.86 0.0 0 0 469.36 559.40  C 474.23 573.55 479.25 587.44 483.57 601.54  Q 483.73 602.04 484.26 602.00  C 491.99 601.31 498.51 597.44 499.94 589.79  C 500.31 587.77 499.96 585.79 499.84 583.78  Q 499.72 581.76 500.36 583.68  L 504.27 595.45  Q 504.41 595.88 503.99 596.06  Q 489.53 602.17 474.96 606.08  Q 473.27 606.54 474.78 605.65  Q 476.24 604.78 478.42 604.48  A 0.72 0.72 0.0 0 0 479.00 603.54  L 464.52 561.29  A 0.73 0.72 -24.1 0 0 463.48 560.90  Q 460.88 562.34 457.75 562.21  Q 457.05 562.17 457.12 562.88  Z"></path>
<path d="  M 337.40 606.21  L 336.83 606.73  Q 335.38 608.05 335.71 606.11  L 337.66 594.70  A 0.22 0.22 0.0 0 1 337.95 594.52  L 338.21 594.61  A 0.75 0.74 9.5 0 1 338.73 595.33  Q 338.62 606.68 345.72 610.07  Q 347.30 610.83 348.84 610.57  C 350.52 610.30 351.60 611.03 353.31 610.35  Q 357.54 608.65 359.39 604.27  C 362.15 597.71 359.62 592.58 353.73 589.36  C 349.12 586.85 342.93 582.92 342.70 577.11  C 342.37 568.80 346.98 562.52 355.27 561.74  Q 355.78 561.69 356.23 561.94  Q 357.04 562.40 358.00 562.49  C 360.44 562.72 363.00 564.65 364.62 566.41  A 0.75 0.74 38.5 0 0 365.82 566.28  Q 366.16 565.68 366.76 565.40  Q 367.59 565.01 367.45 565.92  Q 366.67 571.09 365.42 575.96  Q 365.37 576.15 365.24 576.22  Q 365.11 576.28 364.96 576.20  Q 364.85 576.14 364.86 576.02  C 364.89 569.99 362.01 561.41 354.10 562.70  C 344.79 564.22 343.64 575.39 351.29 580.00  Q 355.85 582.74 359.93 585.41  Q 364.85 588.63 365.28 593.55  C 365.59 596.99 365.26 600.82 363.21 603.68  C 356.91 612.48 346.12 614.18 338.35 606.24  Q 337.89 605.76 337.40 606.21  Z"></path>
<path d="  M 448.64 608.39  Q 445.59 610.71 441.72 613.04  Q 438.73 614.84 435.07 614.64  Q 429.30 614.34 424.91 609.79  Q 415.04 599.56 416.19 584.50  C 417.01 573.82 425.56 560.37 438.21 565.64  Q 441.14 566.86 443.41 565.27  Q 443.88 564.93 443.96 565.51  L 445.19 574.74  Q 445.65 578.20 444.13 575.05  C 442.00 570.65 440.58 566.45 434.92 565.68  C 432.95 565.42 430.50 565.29 428.62 566.19  Q 422.59 569.07 421.57 576.85  Q 419.44 593.12 426.92 607.87  C 430.59 615.09 439.68 616.26 443.86 608.73  Q 446.91 603.25 445.22 596.31  A 1.46 1.46 0.0 0 0 443.57 595.20  L 440.00 595.76  Q 439.51 595.84 439.44 595.34  Q 439.42 595.18 439.58 595.04  Q 439.65 594.98 439.75 594.95  Q 441.98 594.26 444.28 594.16  Q 446.27 594.07 448.31 593.73  Q 450.71 593.34 453.00 593.66  Q 453.77 593.76 453.09 594.13  Q 452.04 594.71 450.74 594.45  Q 449.45 594.19 449.63 595.48  L 451.45 608.86  Q 451.67 610.42 450.53 609.33  L 449.60 608.44  Q 449.14 608.00 448.64 608.39  Z"></path>
<path d="  M 385.56 614.36  L 389.98 614.77  Q 390.12 614.78 390.12 614.92  L 390.12 615.19  Q 390.12 615.22 390.10 615.22  C 388.34 615.02 386.87 615.56 385.02 615.36  Q 379.68 614.77 374.69 614.09  Q 373.45 613.92 374.67 613.67  Q 376.22 613.35 378.27 613.85  A 1.25 1.25 0.0 0 0 379.81 612.71  Q 380.89 596.49 382.10 579.80  Q 382.48 574.44 383.08 569.26  A 0.74 0.73 -82.0 0 0 382.48 568.46  C 380.78 568.16 379.51 567.43 377.71 567.89  C 373.21 569.06 371.08 572.86 369.40 576.98  A 0.41 0.41 0.0 0 1 368.62 576.79  L 369.52 566.97  Q 369.59 566.29 370.27 566.34  L 401.01 568.59  A 0.65 0.64 -86.8 0 1 401.60 569.26  L 401.20 579.50  Q 401.14 581.01 400.65 579.58  C 399.49 576.20 398.48 572.57 395.47 570.27  Q 392.44 567.96 389.24 568.48  Q 388.57 568.59 388.48 569.26  Q 387.49 576.18 386.98 584.23  Q 386.95 584.76 386.92 585.26  Q 386.18 598.87 384.86 613.52  Q 384.79 614.29 385.56 614.36  Z"></path>
<rect x="-4.93" y="-2.23" transform="translate(407.42,600.76) rotate(-1.9)" width="9.86" height="4.46" rx="0.66"></rect>
</g>
<g fill="#ed7f04">
<path d="  M 398.30 76.99  Q 398.76 77.13 399.16 76.90  Q 399.47 76.73 399.63 76.38  C 401.56 72.07 398.07 66.92 395.65 63.48  A 1.24 1.23 47.8 0 1 395.72 61.98  Q 398.69 58.49 399.92 53.98  A 0.75 0.75 0.0 0 1 401.26 53.75  L 407.49 62.67  Q 407.76 63.06 407.43 63.42  Q 402.64 68.61 401.42 76.60  A 1.07 1.07 0.0 0 0 402.52 77.83  L 404.98 77.72  Q 405.54 77.70 405.79 78.20  C 407.92 82.42 411.64 84.43 408.23 89.84  C 405.80 93.71 400.10 93.86 396.75 91.40  Q 393.38 88.94 393.63 84.87  C 393.83 81.73 397.99 80.19 397.00 76.61  Q 396.05 73.15 390.97 71.63  Q 389.81 71.28 390.70 70.46  Q 391.13 70.06 391.62 69.69  Q 392.63 68.92 393.68 69.63  Q 397.28 72.05 397.90 76.51  A 0.59 0.58 -85.4 0 0 398.30 76.99  Z  M 405.48 87.25  C 407.32 81.24 400.32 79.81 397.20 83.87  Q 396.77 84.43 397.04 85.09  Q 397.69 86.72 399.25 87.87  C 400.28 88.63 401.33 88.47 402.52 88.83  A 2.38 2.38 0.0 0 0 405.48 87.25  Z"></path>
<path d="  M 473.55 89.68  A 0.88 0.88 0.0 0 0 473.83 90.84  C 478.98 94.20 484.39 95.50 490.53 96.67  Q 496.43 97.79 500.86 99.65  C 506.84 102.16 512.43 105.56 518.70 107.96  C 523.84 109.92 529.37 112.15 533.82 115.91  C 538.56 119.90 544.80 121.97 550.22 124.86  Q 554.45 127.12 559.42 130.69  Q 582.21 147.06 597.40 161.36  Q 610.91 174.07 619.70 186.05  C 631.16 201.69 642.41 217.24 652.29 233.78  C 654.78 237.94 656.47 242.68 655.35 247.46  A 1.14 1.13 29.9 0 1 653.42 247.98  Q 651.70 246.15 650.84 244.49  C 646.39 235.91 641.90 226.20 636.37 217.20  Q 633.29 212.17 628.98 206.58  Q 620.35 195.39 612.04 184.64  Q 608.77 180.42 603.92 175.27  C 596.47 167.35 587.90 159.86 579.72 153.22  C 565.03 141.27 550.18 128.91 532.54 121.45  C 529.17 120.02 525.27 118.28 522.22 116.27  Q 513.37 110.42 501.58 106.00  Q 483.87 99.36 467.60 95.74  Q 454.46 92.81 433.34 89.39  Q 429.97 88.84 427.42 88.82  Q 424.44 88.80 421.74 88.56  C 418.81 88.30 417.01 84.87 420.01 82.97  A 1.52 1.51 54.0 0 0 420.36 80.72  C 415.74 75.17 414.20 66.61 421.73 62.36  A 0.35 0.35 0.0 0 1 422.25 62.70  Q 421.99 65.15 420.46 66.89  C 417.78 69.92 419.04 75.24 421.61 77.66  C 426.33 82.11 433.08 81.86 438.95 80.23  Q 450.24 77.09 454.74 76.11  Q 462.65 74.38 469.45 77.96  C 473.71 80.20 476.07 85.23 473.55 89.68  Z  M 462.11 79.43  C 455.42 79.28 447.93 80.43 442.12 83.44  A 0.50 0.50 0.0 0 0 442.25 84.38  C 444.43 84.85 446.54 85.50 448.79 85.87  Q 459.11 87.55 469.03 89.97  Q 469.55 90.10 469.99 89.79  C 473.96 86.95 472.92 82.29 468.70 80.71  Q 465.44 79.50 462.11 79.43  Z"></path>
<path d="  M 328.34 91.21  Q 328.43 90.20 328.18 89.01  C 327.43 85.37 329.13 81.32 331.78 79.08  Q 334.53 76.77 338.79 75.80  Q 342.13 75.04 346.52 75.93  Q 353.86 77.41 360.93 79.76  Q 363.68 80.67 368.33 81.24  C 373.14 81.82 379.33 80.49 382.06 76.46  C 383.64 74.12 384.32 69.77 382.44 67.12  Q 381.68 66.06 380.91 65.01  Q 380.31 64.20 380.47 63.36  A 0.64 0.64 0.0 0 1 381.42 62.92  C 383.76 64.26 385.05 66.00 385.54 68.73  Q 386.80 75.72 381.96 81.04  A 1.02 1.01 41.2 0 0 382.06 82.50  L 383.90 84.04  A 1.82 1.82 0.0 0 1 384.29 86.37  C 382.69 89.06 380.52 88.14 378.20 88.99  Q 377.20 89.36 376.14 89.40  Q 367.11 89.74 357.04 91.43  Q 304.49 100.29 260.29 125.30  Q 257.12 127.09 254.18 129.56  Q 251.24 132.02 248.12 134.36  C 245.58 136.25 242.46 136.67 239.97 138.56  C 235.83 141.69 231.95 145.35 227.89 148.41  C 219.63 154.67 212.07 160.81 205.59 169.02  C 203.93 171.12 201.87 173.18 199.61 174.62  C 197.25 176.14 195.29 177.55 193.89 180.12  C 192.51 182.63 190.89 185.40 188.61 187.12  C 184.21 190.43 181.26 194.21 178.36 198.99  Q 175.88 203.09 173.06 206.89  Q 161.53 222.46 153.39 240.69  C 151.79 244.26 150.23 246.74 147.84 249.44  A 0.66 0.66 0.0 0 1 146.81 249.38  Q 144.16 245.70 146.56 241.24  Q 150.28 234.33 153.78 228.04  Q 169.63 199.55 190.96 175.11  Q 197.40 167.73 205.00 160.86  Q 217.64 149.43 230.49 139.67  C 253.04 122.55 277.63 108.70 304.12 99.27  Q 305.42 98.81 306.64 98.22  C 308.23 97.44 309.73 97.43 311.42 96.85  Q 319.45 94.06 327.68 91.99  Q 328.28 91.83 328.34 91.21  Z  M 358.01 82.13  C 350.64 79.66 341.57 78.45 334.45 81.18  Q 330.69 82.62 330.92 86.63  Q 330.93 86.82 330.95 87.14  Q 331.16 90.94 334.84 89.94  Q 341.88 88.01 349.10 86.28  C 352.99 85.34 356.53 86.33 360.21 84.70  A 0.76 0.76 0.0 0 0 360.37 83.40  Q 359.32 82.57 358.01 82.13  Z"></path>
<path d="  M 404.09 73.56  Q 405.12 70.47 408.15 69.99  Q 409.63 69.75 409.76 71.25  L 409.78 71.52  Q 409.89 72.75 408.66 72.71  Q 406.66 72.64 405.26 74.24  Q 403.02 76.77 404.09 73.56  Z"></path>
<path d="  M 442.97 98.41  Q 442.58 98.41 442.37 98.21  A 0.45 0.45 0.0 0 1 442.63 97.44  Q 443.75 97.33 443.34 98.18  A 0.41 0.40 12.5 0 1 442.97 98.41  Z"></path>
<ellipse cx="0.00" cy="0.00" transform="translate(455.06,99.66) rotate(2.4)" rx="1.70" ry="0.71"></ellipse>
<ellipse cx="0.00" cy="0.00" transform="translate(345.52,99.88) rotate(-2.4)" rx="0.89" ry="0.31"></ellipse>
<path d="  M 470.01 103.40  Q 468.91 103.71 467.97 103.18  C 466.69 102.48 465.12 102.30 463.69 102.10  Q 462.69 101.96 463.65 101.63  Q 464.78 101.24 465.80 101.55  Q 469.48 102.65 473.38 104.07  Q 474.34 104.42 473.32 104.40  Q 471.83 104.37 470.93 103.60  Q 470.53 103.26 470.01 103.40  Z"></path>
<path d="  M 269.58 127.92  Q 273.78 125.57 278.10 123.42  Q 287.54 118.74 297.33 113.61  C 300.03 112.20 303.47 110.92 306.00 110.20  Q 316.54 107.21 326.98 103.92  C 330.11 102.94 333.20 102.61 336.25 101.73  Q 336.29 101.71 336.31 101.75  Q 336.36 101.87 336.38 102.00  Q 336.38 102.06 336.32 102.08  Q 320.66 106.88 308.33 111.60  Q 265.03 128.18 228.28 158.70  Q 204.44 178.50 183.91 203.36  Q 183.88 203.41 183.83 203.37  L 183.63 203.22  Q 183.40 203.03 183.58 202.79  Q 195.84 186.71 212.08 170.92  Q 238.14 145.58 269.58 127.92  Z"></path>
<path d="  M 478.91 105.63  C 480.14 105.36 480.64 105.99 481.73 106.27  Q 500.08 110.95 516.77 119.12  Q 518.83 120.13 520.49 121.49  C 523.21 123.73 526.07 124.91 529.56 125.31  A 2.71 2.70 -20.4 0 1 531.09 126.01  C 534.08 128.81 536.56 131.81 540.87 132.71  C 542.65 133.08 544.63 134.25 546.03 135.34  C 552.42 140.36 558.59 147.02 566.41 150.23  C 571.32 152.25 572.87 158.67 577.65 160.65  C 582.56 162.69 586.11 166.19 589.66 170.08  Q 598.91 180.22 607.93 189.68  Q 609.53 191.37 611.17 193.49  Q 611.57 194.02 610.98 193.72  Q 610.37 193.43 609.90 192.94  C 590.81 172.89 570.54 154.87 547.43 139.31  Q 516.48 118.48 479.50 106.34  Q 477.12 105.56 474.83 105.14  Q 473.78 104.95 474.83 104.75  Q 476.54 104.43 477.82 105.39  Q 478.31 105.76 478.91 105.63  Z"></path>
<path d="  M 124.43 247.15  Q 126.37 247.94 125.63 245.99  Q 122.07 236.60 123.66 228.42  Q 125.31 219.86 131.04 216.58  Q 134.78 214.43 140.51 215.06  Q 141.11 215.12 140.82 215.64  Q 140.14 216.90 138.59 217.13  Q 129.26 218.52 127.78 227.71  Q 126.01 238.77 133.35 247.59  Q 139.91 255.46 148.15 257.79  C 152.54 259.03 158.31 261.83 161.68 256.82  Q 163.63 253.93 164.92 250.48  Q 166.13 247.23 167.78 244.02  Q 175.57 228.85 184.88 216.57  Q 188.13 212.29 191.53 208.74  Q 192.91 207.29 192.17 209.15  Q 190.89 212.35 186.55 216.02  C 184.50 217.76 183.29 221.30 181.79 223.79  C 175.39 234.40 168.23 245.11 164.59 256.80  Q 164.25 257.88 164.31 258.94  A 0.95 0.95 0.0 0 0 165.26 259.83  L 174.78 259.84  Q 177.07 259.85 178.24 257.87  Q 185.93 244.81 193.81 231.75  Q 197.68 225.32 203.63 218.83  Q 204.00 218.42 204.11 218.96  Q 204.19 219.29 203.85 219.78  C 195.64 231.90 187.45 244.15 181.45 257.53  A 0.85 0.85 0.0 0 0 181.88 258.66  Q 186.45 260.70 191.85 260.55  C 193.89 260.49 195.98 259.07 197.21 257.57  C 201.32 252.56 204.23 246.51 207.30 240.70  C 210.07 235.46 213.35 231.23 216.93 226.75  C 219.43 223.62 221.73 219.29 221.66 215.27  Q 221.63 213.50 221.99 211.85  Q 222.10 211.37 222.52 211.12  Q 223.27 210.66 223.97 211.13  Q 224.53 211.52 224.63 212.22  Q 224.99 214.75 224.72 217.19  Q 224.66 217.72 225.19 217.82  Q 227.74 218.26 230.39 218.47  Q 232.16 218.62 232.95 220.16  A 1.42 1.42 0.0 0 1 232.12 222.15  C 228.92 223.16 225.76 223.45 222.76 225.23  C 215.58 229.49 211.13 236.28 207.39 243.63  Q 203.65 250.97 199.77 257.88  A 0.65 0.65 0.0 0 0 200.08 258.80  Q 208.63 262.50 214.08 257.98  Q 217.26 255.33 219.82 250.80  C 222.14 246.70 225.16 240.72 228.97 238.05  Q 231.28 236.44 229.64 238.73  Q 226.69 242.82 223.73 247.20  Q 220.47 252.03 218.20 257.36  A 1.40 1.39 17.6 0 0 219.19 259.26  Q 224.76 260.46 229.27 260.22  Q 233.01 260.02 235.14 256.48  C 237.03 253.34 238.86 249.55 241.82 247.40  Q 242.31 247.04 242.52 247.61  Q 242.70 248.09 242.39 248.48  Q 238.83 253.00 236.16 257.44  A 0.89 0.89 0.0 0 0 236.74 258.77  Q 242.30 259.92 248.00 259.94  C 249.06 259.94 249.67 260.42 250.75 260.44  Q 254.95 260.52 259.54 260.50  C 265.13 260.47 268.74 256.28 271.56 251.93  Q 273.95 248.23 276.60 244.60  Q 278.04 242.62 279.99 241.57  C 283.13 239.89 285.38 238.06 287.55 235.19  Q 290.29 231.56 292.91 229.58  Q 320.07 209.03 353.78 199.02  C 354.46 198.81 355.06 198.79 355.73 198.61  Q 382.92 191.06 408.88 193.14  C 411.03 193.31 413.51 192.90 415.03 193.48  Q 415.73 193.74 416.40 193.74  Q 418.95 193.74 422.92 194.34  Q 441.34 197.10 455.50 201.55  Q 463.40 204.03 473.15 208.72  Q 481.59 212.78 490.27 217.22  C 493.96 219.11 497.49 221.39 500.59 224.17  C 503.28 226.58 505.97 229.25 509.28 230.83  C 512.02 232.13 515.02 233.66 516.64 236.26  Q 520.69 242.76 527.30 247.43  C 528.82 248.51 531.03 250.92 531.99 252.54  C 534.64 256.99 536.57 260.70 542.56 260.55  Q 548.41 260.41 554.75 259.26  Q 560.05 258.31 565.06 259.18  A 0.96 0.96 0.0 0 0 566.13 257.90  Q 565.35 255.74 563.75 253.83  Q 561.13 250.67 559.41 247.49  Q 559.14 246.98 559.63 246.69  Q 559.75 246.62 559.87 246.68  Q 559.98 246.74 560.06 246.82  Q 562.16 248.90 563.46 250.81  C 565.25 253.46 568.12 258.04 570.77 259.57  A 1.49 1.48 55.7 0 0 571.71 259.75  Q 577.23 258.91 582.51 259.70  A 1.66 1.66 0.0 0 0 584.33 257.53  Q 582.58 252.33 579.14 248.11  Q 575.17 243.25 571.88 237.89  Q 571.77 237.71 571.94 237.59  L 572.18 237.42  A 0.60 0.60 0.0 0 1 572.98 237.53  Q 581.51 247.54 587.74 258.90  Q 588.01 259.37 588.55 259.38  Q 593.19 259.49 597.49 259.51  Q 599.15 259.51 601.11 259.19  A 0.97 0.97 0.0 0 0 601.86 257.88  C 598.10 248.26 593.35 238.47 586.44 230.89  Q 580.31 224.17 570.21 221.68  Q 569.39 221.48 569.78 220.74  Q 570.59 219.17 572.38 218.41  Q 573.79 217.81 575.32 217.94  Q 576.03 218.00 576.68 217.76  A 0.87 0.86 78.3 0 0 577.24 216.89  Q 577.05 214.23 577.72 211.64  Q 577.85 211.16 578.33 211.02  Q 580.62 210.40 581.18 212.66  C 581.77 215.09 581.43 217.37 582.32 219.74  Q 584.69 226.05 586.32 228.18  Q 594.76 239.24 601.49 251.40  C 602.96 254.04 604.63 256.54 606.63 258.80  C 608.23 260.60 610.63 259.28 612.78 259.47  Q 616.22 259.79 619.57 259.69  A 1.10 1.09 -12.3 0 0 620.55 258.17  Q 611.68 236.83 597.67 219.01  A 0.31 0.31 0.0 0 1 597.71 218.58  Q 597.81 218.49 597.95 218.45  Q 598.04 218.42 598.12 218.49  Q 601.61 221.68 602.96 223.46  C 610.91 233.96 617.25 246.62 623.98 258.51  Q 624.43 259.31 625.35 259.34  L 636.85 259.70  A 1.22 1.22 0.0 0 0 638.07 258.17  Q 637.05 254.38 635.25 250.48  Q 625.72 229.92 609.61 207.87  A 0.44 0.43 52.0 0 1 609.68 207.28  L 609.88 207.11  Q 610.07 206.95 610.24 207.14  C 623.10 222.40 633.21 241.59 641.87 258.51  Q 642.09 258.94 642.56 258.94  Q 643.76 258.95 644.98 258.77  Q 658.25 256.79 666.84 247.85  Q 672.68 241.76 673.27 232.57  C 673.59 227.61 669.60 217.55 663.57 217.10  Q 661.51 216.94 659.52 216.35  A 0.36 0.36 0.0 0 1 659.29 215.86  Q 659.59 215.19 660.38 215.12  Q 672.00 214.15 675.99 225.09  Q 679.32 234.25 676.06 243.15  Q 675.56 244.51 675.02 245.93  Q 674.00 248.60 676.47 247.16  Q 685.97 241.64 694.86 239.28  Q 703.32 237.02 710.37 241.29  Q 715.34 244.30 716.42 251.18  C 717.16 255.93 713.68 260.03 709.77 262.04  Q 705.34 264.32 699.94 264.95  C 686.25 266.55 672.51 265.26 658.91 265.26  C 637.19 265.27 615.16 265.30 593.25 264.96  Q 559.66 264.46 525.25 265.64  C 522.44 265.73 519.70 265.34 516.91 265.56  Q 515.39 265.68 513.69 265.60  Q 495.05 264.67 475.56 264.75  Q 471.19 264.77 465.83 263.47  C 460.47 262.17 455.47 259.07 454.34 253.09  Q 453.08 246.35 460.49 242.77  Q 461.83 242.12 461.26 243.50  Q 460.34 245.72 458.89 247.60  Q 458.52 248.08 458.49 248.69  C 458.44 249.84 457.76 250.33 457.93 251.52  Q 458.90 258.45 466.35 259.55  Q 473.68 260.63 480.21 260.11  Q 486.66 259.60 492.66 259.92  A 0.94 0.94 0.0 0 0 493.59 258.65  Q 492.59 256.02 490.08 254.34  C 486.15 251.70 482.43 249.45 479.01 246.06  Q 475.39 242.49 470.65 240.34  Q 463.13 236.94 455.77 234.23  Q 444.63 230.14 434.07 231.39  C 423.42 232.66 419.30 241.69 420.07 251.47  C 420.98 262.98 437.19 265.76 441.62 254.99  C 443.07 251.49 439.70 248.56 437.67 246.02  Q 437.46 245.75 437.51 245.41  Q 437.65 244.52 438.40 245.01  C 444.60 249.00 445.13 256.19 440.00 261.17  C 432.12 268.82 420.89 264.28 416.42 255.16  Q 415.55 253.37 415.23 251.33  C 414.94 249.55 414.35 248.07 414.70 246.18  Q 417.65 229.86 433.31 227.09  Q 440.30 225.85 449.08 227.71  C 460.30 230.08 469.79 235.21 479.14 242.08  Q 481.19 243.58 484.06 244.71  C 489.06 246.68 492.27 251.51 495.85 255.23  Q 502.51 262.14 512.38 259.52  Q 512.94 259.37 512.87 258.79  C 512.54 256.05 510.05 255.45 508.13 254.10  C 504.65 251.66 503.97 247.11 500.30 244.81  Q 497.93 243.33 495.52 241.93  C 491.68 239.70 489.74 235.81 486.00 233.46  Q 484.03 232.23 482.06 231.22  Q 471.23 225.69 460.67 220.49  Q 457.69 219.03 454.63 217.89  Q 451.46 216.72 448.44 215.47  C 447.70 215.16 447.21 215.32 446.49 215.13  Q 446.03 215.01 446.47 214.83  Q 446.95 214.64 447.47 214.77  Q 470.81 220.48 490.10 234.49  Q 504.57 245.00 517.59 258.44  C 518.43 259.31 519.59 259.71 520.79 259.67  Q 524.53 259.54 528.00 259.69  A 1.14 1.14 0.0 0 0 529.10 258.11  Q 528.31 256.23 526.96 254.54  C 521.60 247.77 515.28 242.67 508.91 237.15  C 503.00 232.02 496.55 227.39 490.44 222.40  C 487.21 219.76 482.53 218.33 478.71 216.71  C 472.95 214.27 467.51 211.00 461.61 208.72  Q 436.51 199.03 407.02 197.92  Q 379.21 196.88 353.62 203.89  Q 348.01 205.43 342.12 208.25  Q 333.18 212.54 323.47 216.54  C 316.80 219.29 310.21 223.09 304.23 227.49  Q 287.33 239.92 273.80 256.79  Q 271.51 259.65 275.15 260.02  Q 276.77 260.19 278.27 260.01  A 10.66 10.65 -74.3 0 0 285.35 256.03  Q 288.32 252.25 291.22 248.91  Q 296.28 243.10 305.48 236.87  Q 317.87 228.49 329.39 222.72  Q 339.79 217.51 351.82 214.54  Q 354.82 213.81 357.91 213.60  Q 358.10 213.59 358.11 213.77  L 358.11 213.78  Q 358.12 213.94 357.97 213.95  Q 356.46 214.08 355.14 214.65  C 351.64 216.18 347.97 217.11 344.38 218.46  Q 312.06 230.62 289.21 256.25  Q 286.16 259.67 290.72 260.19  Q 292.37 260.38 293.89 260.34  Q 298.80 260.20 302.31 256.78  Q 306.72 252.49 311.25 248.77  Q 320.10 241.50 332.98 234.26  Q 344.57 227.74 358.15 227.02  Q 360.57 226.89 362.97 227.18  C 365.82 227.52 368.48 227.39 371.29 228.24  Q 374.08 229.08 375.84 229.98  Q 381.25 232.74 383.37 239.37  Q 386.74 249.87 381.39 258.25  Q 376.38 266.10 367.27 264.83  Q 364.03 264.38 360.30 262.20  Q 357.54 260.59 356.64 257.55  C 355.38 253.30 356.29 247.25 360.77 245.19  A 0.46 0.46 0.0 0 1 361.41 245.51  Q 361.49 245.87 361.29 246.17  C 360.08 247.96 358.19 250.12 358.07 252.31  C 357.73 258.36 362.85 260.02 367.68 261.05  Q 368.76 261.28 369.81 261.10  Q 370.99 260.90 372.17 260.76  C 382.27 259.50 383.88 247.66 379.29 240.47  C 374.57 233.08 366.29 230.12 357.44 230.84  Q 349.11 231.51 341.30 234.92  Q 327.01 241.17 313.53 251.58  Q 309.88 254.40 306.60 258.11  A 0.96 0.96 0.0 0 0 307.35 259.70  Q 312.01 259.56 316.60 260.12  C 322.97 260.90 329.75 260.94 336.24 260.02  C 341.29 259.31 345.83 256.18 345.46 250.45  C 345.29 247.90 343.59 245.74 342.17 243.72  Q 341.25 242.40 342.81 242.79  C 344.87 243.31 346.32 244.86 346.92 246.92  Q 348.26 251.56 347.72 255.89  Q 347.66 256.37 347.34 256.73  Q 344.32 260.17 340.37 261.79  Q 335.94 263.61 331.05 264.17  Q 323.02 265.09 314.53 264.73  Q 305.63 264.35 298.25 264.53  Q 287.39 264.80 277.00 264.98  Q 246.53 265.52 214.50 265.14  Q 197.58 264.94 182.88 264.86  Q 174.55 264.81 162.88 264.45  Q 151.71 264.10 141.63 264.44  Q 132.65 264.75 124.28 264.77  Q 114.92 264.81 106.99 265.24  C 101.92 265.52 94.13 265.42 90.01 261.79  C 85.24 257.59 82.07 249.99 86.39 244.29  C 90.60 238.76 97.84 238.39 104.14 239.53  Q 112.74 241.10 122.12 245.78  C 122.94 246.19 123.67 246.84 124.43 247.15  Z  M 702.04 243.42  C 701.27 243.32 700.48 242.99 699.73 243.06  Q 695.80 243.44 692.58 244.91  Q 687.79 247.08 679.56 252.78  Q 676.32 255.03 671.95 256.12  Q 670.61 256.46 669.69 257.49  Q 669.46 257.74 669.34 258.07  Q 668.95 259.10 670.05 258.98  Q 676.31 258.28 682.40 259.18  Q 685.03 259.57 687.64 259.75  Q 690.14 259.92 692.69 260.27  Q 696.79 260.83 701.90 260.10  Q 705.87 259.54 707.99 257.38  Q 710.84 254.48 710.12 250.74  Q 708.87 244.29 702.04 243.42  Z  M 119.58 259.25  Q 125.01 258.68 130.97 259.14  Q 131.90 259.21 131.36 258.44  Q 130.27 256.86 128.34 256.16  C 123.88 254.52 119.96 253.09 116.48 249.65  Q 113.91 247.11 110.94 245.70  Q 102.84 241.87 94.01 245.16  C 91.29 246.18 88.41 249.95 89.15 252.93  C 90.12 256.86 95.75 259.25 99.03 259.54  Q 101.45 259.76 104.14 260.09  Q 106.90 260.44 109.38 260.23  Q 114.51 259.79 119.58 259.25  Z"></path>
<ellipse cx="0.00" cy="0.00" transform="translate(617.09,202.14) rotate(51.4)" rx="3.04" ry="0.57"></ellipse>
<path d="  M 409.15 215.89  L 416.18 216.67  Q 418.35 216.91 416.55 218.15  C 410.82 222.10 405.19 226.58 402.15 232.97  C 401.04 235.31 402.76 237.25 403.29 239.43  C 403.89 241.91 401.21 243.40 399.08 242.39  A 1.51 1.51 0.0 0 1 398.26 240.65  C 401.04 230.04 393.43 223.07 384.50 218.31  Q 383.99 218.04 384.32 217.55  C 385.59 215.70 389.58 215.61 391.59 215.74  Q 392.32 215.78 392.83 215.25  Q 398.70 209.13 398.23 203.17  Q 398.08 201.33 399.93 201.34  L 401.21 201.35  Q 403.23 201.36 403.22 203.37  C 403.22 205.30 403.17 207.33 404.38 208.96  Q 406.61 211.95 408.08 215.12  Q 408.40 215.81 409.15 215.89  Z"></path>
<path d="  M 76.21 445.18  Q 74.57 445.81 72.79 445.79  Q 74.83 444.61 76.21 445.18  Z"></path>
<path d="  M 405.48 455.65  Q 405.52 456.01 406.12 456.44  Q 406.55 456.74 407.07 456.81  Q 409.00 457.07 410.89 457.43  A 0.68 0.68 0.0 0 1 411.31 458.49  Q 409.80 460.58 407.65 461.74  C 404.45 463.47 403.04 466.71 402.01 470.05  Q 401.79 470.76 401.18 471.14  A 0.49 0.49 0.0 0 1 400.46 470.87  Q 398.01 463.47 390.78 458.57  Q 390.45 458.34 390.36 457.97  A 0.75 0.74 -3.8 0 1 391.17 457.05  Q 393.61 457.34 395.58 456.92  A 1.35 1.35 0.0 0 0 396.11 454.52  C 394.26 453.12 392.33 452.68 389.85 452.75  Q 371.36 453.25 353.57 452.99  Q 350.76 452.95 347.93 453.21  C 345.37 453.44 342.87 452.96 340.34 452.97  Q 232.28 453.43 125.07 451.87  Q 124.85 451.86 124.86 451.65  L 124.86 451.38  Q 124.86 450.95 125.29 450.94  Q 145.65 450.41 166.51 450.05  Q 175.67 449.89 186.50 449.86  Q 226.49 449.74 266.75 450.11  Q 294.92 450.37 315.96 450.04  C 331.16 449.80 343.98 449.90 354.13 449.61  Q 371.84 449.09 384.88 449.47  Q 391.92 449.67 397.03 449.18  Q 399.01 448.99 400.30 446.98  A 0.80 0.80 0.0 0 1 401.52 446.83  C 403.57 448.72 405.82 450.41 408.81 450.32  C 411.61 450.23 414.27 450.35 417.06 450.03  Q 425.15 449.10 433.74 449.14  Q 435.47 449.15 437.25 449.09  Q 475.28 447.96 527.25 449.51  Q 548.93 450.16 632.03 450.26  C 640.53 450.28 649.17 450.55 657.36 450.11  C 658.23 450.06 659.36 450.66 660.55 450.63  Q 668.94 450.42 676.85 451.10  A 0.02 0.01 45.7 0 1 676.85 451.13  Q 658.46 452.17 639.18 452.25  Q 636.29 452.27 632.85 452.40  Q 629.71 452.52 626.50 452.56  Q 581.01 453.17 541.39 453.06  Q 541.04 453.06 540.72 453.19  Q 540.51 453.28 540.28 453.28  Q 509.15 453.29 478.04 453.25  Q 476.18 453.25 474.00 453.06  C 470.21 452.74 466.43 453.37 462.82 453.21  C 449.63 452.63 436.53 453.11 424.56 452.83  Q 415.98 452.63 406.78 453.96  A 1.52 1.52 0.0 0 0 405.48 455.65  Z"></path>
<path d="  M 123.25 451.51  Q 123.75 451.46 124.02 451.57  A 0.03 0.03 0.0 0 1 124.00 451.63  L 119.46 451.66  Q 118.59 451.66 119.44 451.45  Q 120.80 451.11 122.27 451.45  Q 122.75 451.56 123.25 451.51  Z"></path>
<path d="  M 492.92 473.76  Q 482.37 472.60 472.88 472.75  C 466.60 472.85 458.07 474.53 457.66 482.35  C 457.46 486.12 461.65 487.25 461.41 490.05  Q 461.36 490.61 460.86 490.36  Q 457.13 488.51 455.50 486.02  Q 452.94 482.13 455.25 476.83  C 457.02 472.78 461.36 470.70 465.47 469.97  Q 469.88 469.19 473.98 469.06  Q 486.21 468.67 498.45 468.36  C 512.95 467.98 528.91 468.06 542.25 468.42  Q 549.13 468.60 554.75 468.63  Q 564.27 468.67 572.00 468.73  Q 596.50 468.91 624.88 468.51  Q 625.69 468.49 626.50 468.49  Q 655.34 468.30 689.00 468.20  Q 698.40 468.17 706.42 469.94  C 709.83 470.70 713.25 472.62 715.18 475.73  Q 717.96 480.21 716.11 484.64  Q 714.52 488.46 711.27 490.83  Q 704.68 495.66 697.51 495.54  C 691.95 495.44 689.18 490.88 684.84 489.38  Q 679.67 487.61 674.50 485.54  A 0.71 0.71 0.0 0 0 673.53 486.11  Q 673.42 486.94 674.00 487.62  C 676.03 490.01 677.36 492.08 677.86 495.31  Q 679.09 503.32 675.36 510.04  Q 673.24 513.86 669.83 516.05  Q 666.11 518.45 661.61 518.64  Q 656.98 518.85 661.26 517.05  C 668.10 514.17 672.92 509.13 673.26 501.20  C 673.33 499.52 672.70 495.84 671.99 494.32  Q 669.20 488.36 665.77 485.00  Q 656.55 475.98 642.95 474.41  A 0.85 0.85 0.0 0 0 642.10 474.88  Q 637.11 485.11 632.41 493.96  Q 623.42 510.88 611.45 525.66  Q 610.21 527.19 610.45 525.23  Q 610.46 525.13 611.08 524.32  Q 628.29 502.10 638.53 475.91  A 1.59 1.58 25.0 0 0 637.81 473.94  Q 636.96 473.48 635.98 473.50  Q 631.32 473.59 626.32 473.83  Q 625.84 473.85 625.56 474.23  Q 624.00 476.36 622.73 478.64  Q 616.99 488.90 611.68 497.95  Q 606.84 506.20 601.61 512.22  Q 601.07 512.84 600.42 513.26  Q 599.24 514.02 600.05 512.87  Q 612.72 495.09 621.85 475.18  A 0.65 0.64 -65.2 0 0 621.54 474.32  Q 618.82 473.07 615.87 473.34  Q 612.74 473.64 609.85 473.59  A 2.61 2.60 19.6 0 0 607.80 474.56  Q 605.29 477.69 603.56 480.49  C 597.77 489.89 592.53 498.60 585.22 507.51  A 0.27 0.26 -50.5 0 1 584.85 507.55  L 584.62 507.39  A 0.62 0.61 -55.9 0 1 584.47 506.59  C 587.72 501.14 592.34 496.26 595.26 491.29  Q 599.43 484.21 603.14 475.45  Q 603.37 474.89 602.97 474.43  Q 602.00 473.35 600.28 473.38  Q 595.83 473.47 590.93 473.80  C 589.60 473.89 588.81 474.74 588.15 475.82  Q 582.34 485.40 574.71 495.08  C 574.24 495.67 573.49 495.90 573.12 496.53  Q 572.65 497.34 572.91 496.44  Q 573.72 493.61 575.22 491.52  C 578.76 486.59 582.72 481.57 585.47 476.03  Q 586.09 474.79 584.78 474.34  Q 579.04 472.39 572.49 473.54  C 570.33 473.92 568.67 475.75 567.63 477.62  Q 565.99 480.58 563.84 484.14  Q 562.75 485.94 561.47 486.94  Q 558.31 489.41 560.27 485.92  C 562.21 482.46 565.59 479.80 567.11 475.59  Q 567.50 474.51 566.38 474.28  C 564.95 473.98 563.65 473.55 562.18 473.53  Q 552.92 473.36 542.38 473.09  C 540.71 473.05 538.72 473.23 537.06 473.45  C 533.41 473.93 532.34 477.53 531.00 480.43  C 529.02 484.67 524.44 485.05 521.74 488.50  Q 518.59 492.50 515.60 495.93  C 512.42 499.58 507.50 501.89 503.52 504.78  Q 499.92 507.38 496.03 510.14  C 484.68 518.15 471.85 524.40 458.70 528.90  Q 442.39 534.48 424.74 537.25  C 422.41 537.61 419.81 537.48 417.62 538.11  C 415.39 538.74 412.63 538.41 410.33 538.72  Q 407.14 539.14 405.84 539.19  Q 365.65 540.76 329.78 524.20  Q 321.09 520.19 312.14 514.54  C 299.81 506.78 288.67 498.18 278.46 487.85  Q 275.96 485.33 273.61 482.22  C 271.10 478.88 266.88 473.40 262.47 472.94  Q 257.53 472.43 254.66 472.78  Q 247.09 473.71 239.14 474.14  C 238.15 474.19 237.58 473.87 236.66 473.76  A 0.89 0.89 0.0 0 0 235.68 474.80  C 236.49 479.34 239.91 483.11 242.72 486.72  Q 243.00 487.07 242.62 487.44  A 0.45 0.45 0.0 0 1 242.01 487.46  C 240.39 486.08 238.87 484.74 237.77 482.88  Q 235.48 478.98 232.90 475.15  A 3.04 3.03 73.9 0 0 230.48 473.81  L 218.52 473.44  A 1.29 1.29 0.0 0 0 217.25 475.12  Q 218.95 480.50 221.88 484.78  Q 225.53 490.11 229.47 495.75  Q 229.66 496.02 229.44 496.26  L 229.26 496.46  A 0.30 0.30 0.0 0 1 228.83 496.48  C 223.86 491.68 220.45 485.31 216.86 479.41  Q 215.13 476.57 212.36 473.87  A 1.00 0.99 66.8 0 0 211.67 473.59  L 200.46 473.39  A 1.20 1.20 0.0 0 0 199.30 475.00  Q 201.77 481.90 205.77 488.36  Q 211.61 497.80 217.58 506.44  A 0.41 0.40 53.0 0 1 217.51 506.97  L 217.27 507.18  Q 217.06 507.36 216.88 507.15  C 208.52 497.20 202.48 485.89 195.61 474.80  A 2.74 2.71 -15.8 0 0 193.27 473.51  L 182.27 473.59  A 1.36 1.36 0.0 0 0 180.96 475.26  Q 182.86 483.37 188.31 489.56  Q 189.82 491.29 190.65 493.36  Q 192.19 497.22 194.32 500.59  Q 198.49 507.20 204.18 514.62  Q 204.28 514.74 204.16 514.85  L 203.96 515.03  Q 203.81 515.16 203.68 515.03  Q 199.34 510.68 195.82 505.77  C 189.06 496.36 183.23 485.71 178.15 475.31  C 177.10 473.14 175.22 473.57 173.25 473.41  Q 169.02 473.08 164.68 473.62  Q 162.73 473.87 163.43 475.70  Q 169.71 492.28 179.53 507.03  Q 186.70 517.79 192.98 526.88  Q 193.07 527.01 192.94 527.11  L 192.67 527.32  A 0.40 0.40 0.0 0 1 192.12 527.27  Q 181.37 514.79 173.89 501.17  Q 166.62 487.92 159.24 474.58  A 1.48 1.48 0.0 0 0 157.61 473.85  C 143.19 477.10 126.02 485.30 127.42 503.03  Q 127.85 508.51 130.98 511.80  Q 134.77 515.77 139.76 517.21  Q 140.41 517.40 140.58 518.03  A 0.67 0.67 0.0 0 1 139.84 518.86  C 137.83 518.57 136.04 519.00 134.01 518.40  C 127.35 516.44 124.17 509.17 123.45 502.72  Q 122.46 493.76 126.18 486.45  A 0.63 0.63 0.0 0 0 125.48 485.55  Q 122.64 486.16 120.09 487.63  Q 115.66 490.18 111.42 492.54  C 102.33 497.60 92.72 495.97 86.22 487.65  Q 84.28 485.17 84.52 481.79  Q 85.13 473.03 92.27 470.49  Q 94.07 469.85 95.86 469.59  C 97.56 469.35 99.05 468.92 100.84 468.82  Q 111.67 468.17 118.64 468.20  C 190.37 468.49 260.26 467.83 328.51 468.41  Q 332.67 468.45 336.75 469.03  C 342.32 469.82 345.97 474.10 347.44 479.37  Q 349.32 486.10 343.35 489.63  Q 341.33 490.82 342.51 488.80  C 343.72 486.73 345.57 484.70 345.45 482.15  Q 345.20 476.59 340.12 474.53  Q 335.75 472.76 330.25 472.75  C 325.83 472.75 321.55 472.65 316.99 473.11  Q 313.30 473.47 309.71 473.25  A 0.64 0.63 86.1 0 0 309.05 474.01  C 309.69 477.42 316.78 482.57 319.68 484.30  Q 326.96 488.68 334.43 493.31  Q 345.10 499.94 356.90 501.67  Q 367.36 503.20 375.65 498.71  C 383.29 494.58 385.78 485.25 381.99 477.67  C 378.68 471.07 363.07 468.48 360.78 477.39  Q 359.09 483.96 364.61 486.94  A 0.32 0.31 -59.3 0 1 364.72 487.39  L 364.55 487.63  A 0.54 0.53 28.1 0 1 363.92 487.82  Q 361.40 486.79 359.37 484.48  C 357.26 482.08 358.01 476.14 359.94 473.80  Q 364.08 468.77 370.06 468.40  Q 383.09 467.61 386.43 479.10  C 388.20 485.19 386.20 492.83 382.88 498.38  C 381.16 501.26 378.30 502.86 375.21 503.93  Q 372.31 504.94 369.35 505.39  C 362.10 506.50 354.30 506.05 347.24 504.08  C 336.34 501.02 327.79 495.55 318.66 488.49  Q 312.47 483.70 306.65 477.86  Q 300.66 471.87 292.41 473.56  A 0.54 0.54 0.0 0 0 292.00 474.25  Q 292.51 475.86 293.58 477.27  C 295.30 479.53 297.17 481.81 299.24 483.76  Q 309.65 493.52 321.77 500.73  Q 336.07 509.23 350.28 513.91  Q 352.80 514.74 355.04 515.68  Q 355.90 516.04 354.97 516.16  Q 352.09 516.53 349.21 515.54  Q 312.15 502.74 285.32 473.92  Q 284.89 473.46 284.26 473.45  Q 283.56 473.45 282.87 473.66  Q 282.39 473.81 281.88 473.78  L 275.80 473.43  A 1.32 1.31 -7.5 0 0 274.47 475.16  C 275.69 478.77 278.40 481.57 281.34 483.73  Q 285.72 486.95 288.92 491.12  C 292.40 495.67 297.04 498.71 301.69 501.62  Q 310.09 506.88 319.26 512.37  Q 333.17 520.68 349.14 525.40  Q 357.39 527.84 373.44 531.32  Q 383.96 533.60 391.74 533.90  Q 429.25 535.35 461.25 522.99  Q 469.04 519.99 480.86 514.04  Q 488.57 510.17 492.30 506.51  Q 495.30 503.57 498.29 501.69  C 509.17 494.88 518.96 486.76 526.69 476.73  Q 529.20 473.48 525.10 473.33  L 522.73 473.25  Q 518.83 473.11 516.56 476.29  Q 512.60 481.84 507.58 485.41  C 498.96 491.55 490.71 497.76 481.72 503.14  C 471.22 509.42 460.32 513.94 448.72 516.94  Q 448.53 516.98 448.45 516.81  L 448.27 516.45  A 0.73 0.72 -27.1 0 1 448.58 515.50  Q 450.14 514.67 454.30 513.31  Q 487.95 502.37 511.11 476.98  Q 514.21 473.59 509.65 473.01  Q 507.95 472.80 506.33 472.81  A 12.53 12.53 0.0 0 0 497.92 476.10  C 494.50 479.22 491.49 482.97 488.08 485.70  C 476.42 495.01 461.85 503.25 447.55 505.90  Q 438.97 507.50 430.11 504.64  Q 424.35 502.78 420.10 498.25  C 414.40 492.18 413.67 481.78 418.28 474.94  C 422.91 468.08 430.36 465.90 437.62 470.08  C 444.87 474.25 446.70 483.88 437.88 487.97  Q 437.30 488.24 437.33 487.60  L 437.35 487.15  A 0.63 0.62 -18.2 0 1 437.59 486.68  C 439.39 485.28 441.58 483.61 441.75 481.13  C 442.26 473.50 436.22 470.81 429.70 471.72  Q 424.18 472.49 421.59 476.75  C 416.97 484.35 418.86 492.73 426.23 497.87  Q 431.85 501.78 438.73 502.05  Q 447.49 502.38 456.47 499.04  Q 470.79 493.72 483.63 484.40  Q 489.09 480.44 493.48 475.16  A 0.86 0.85 23.3 0 0 492.92 473.76  Z  M 123.63 474.38  Q 114.60 473.49 106.10 473.20  Q 105.79 473.19 105.43 473.07  Q 105.02 472.92 104.76 472.94  Q 100.00 473.20 96.23 473.97  Q 90.46 475.15 89.69 480.57  C 88.97 485.69 93.08 488.76 97.72 489.37  Q 104.27 490.23 110.31 487.83  Q 120.60 483.75 129.94 475.33  Q 131.33 474.08 129.48 474.34  Q 126.90 474.70 123.63 474.38  Z  M 669.24 474.57  A 0.27 0.26 78.9 0 0 669.01 474.92  Q 669.54 476.34 671.07 476.71  Q 674.46 477.52 677.22 479.51  Q 683.71 484.18 689.26 487.21  Q 694.71 490.19 701.98 489.23  Q 705.58 488.76 707.92 486.27  C 710.91 483.09 711.92 477.39 707.44 475.01  C 703.50 472.92 697.87 473.64 693.60 473.70  C 692.03 473.72 690.80 474.47 689.21 474.11  Q 687.79 473.78 686.24 473.76  Q 680.22 473.68 674.35 473.72  C 672.57 473.73 671.02 474.46 669.24 474.57  Z"></path>
<path d="  M 421.67 648.10  L 418.96 648.30  A 0.79 0.79 0.0 0 1 418.12 647.46  L 418.25 645.48  A 0.98 0.98 0.0 0 1 418.83 644.65  Q 421.07 643.63 422.89 643.41  Q 452.39 639.84 482.08 630.81  Q 503.90 624.18 524.23 614.32  Q 562.95 595.55 593.43 565.58  Q 600.53 558.60 606.87 553.04  C 609.58 550.65 611.07 547.21 612.91 544.14  Q 614.34 541.76 617.57 539.26  Q 620.87 536.70 623.11 533.55  Q 631.24 522.11 639.89 506.61  C 642.44 502.04 646.52 498.11 648.21 493.56  Q 649.93 488.92 652.02 484.41  A 1.30 1.29 22.5 0 1 653.64 483.74  Q 654.91 484.23 656.16 485.66  Q 656.58 486.14 656.31 486.71  Q 655.57 488.28 654.86 489.74  Q 606.87 587.88 504.99 628.76  Q 488.99 635.18 473.86 639.56  A 0.56 0.56 0.0 0 0 473.50 640.31  C 477.32 649.73 469.81 657.72 460.27 656.43  Q 452.38 655.37 441.31 651.89  Q 437.69 650.75 432.81 650.43  Q 428.15 650.11 424.91 651.89  Q 420.00 654.57 418.68 659.48  C 417.78 662.81 420.51 665.27 422.40 667.51  Q 422.58 667.72 422.65 668.00  Q 422.71 668.25 422.63 668.51  A 0.73 0.72 19.5 0 1 421.66 668.97  C 413.77 665.78 416.50 656.32 420.16 650.95  Q 420.48 650.49 420.96 650.20  Q 421.79 649.70 422.18 648.80  A 0.51 0.50 9.4 0 0 421.67 648.10  Z  M 448.49 645.66  C 446.31 646.03 444.25 645.69 442.04 645.80  Q 440.90 645.87 440.33 646.76  A 0.69 0.69 0.0 0 0 440.73 647.80  Q 447.66 649.79 453.46 651.63  C 456.80 652.69 461.74 653.26 465.15 652.28  Q 469.47 651.04 471.92 645.73  C 472.84 643.77 471.32 641.93 469.42 641.57  C 467.46 641.21 465.28 641.36 463.22 641.88  Q 458.97 642.94 454.80 644.27  C 452.71 644.94 450.55 645.30 448.49 645.66  Z"></path>
<path d="  M 329.28 641.52  A 1.00 1.00 0.0 0 0 328.75 640.14  Q 320.09 636.76 310.36 633.93  Q 302.25 631.58 294.57 628.32  Q 285.59 624.52 277.24 621.00  C 270.50 618.16 263.98 614.42 257.69 610.25  Q 242.26 599.99 228.84 590.94  Q 226.25 589.19 223.00 586.03  Q 219.99 583.10 216.10 580.65  C 212.72 578.51 209.43 575.60 206.89 572.34  Q 203.75 568.29 201.89 566.51  Q 172.12 538.20 153.32 502.61  Q 151.67 499.49 149.77 496.66  C 147.46 493.23 144.08 488.07 147.84 484.33  Q 148.55 483.62 149.27 484.33  Q 151.31 486.35 152.55 489.16  Q 163.93 514.85 181.38 536.54  C 184.72 540.69 189.34 542.88 191.63 547.93  Q 192.99 550.92 197.22 555.26  C 206.19 564.45 215.87 574.12 226.44 581.78  Q 238.22 590.30 250.04 599.08  C 255.83 603.39 262.68 606.61 269.07 609.86  C 274.63 612.69 280.25 616.01 285.91 618.95  Q 289.32 620.73 292.91 622.01  Q 299.43 624.33 306.13 626.85  C 307.41 627.34 308.42 627.24 309.72 627.79  Q 312.18 628.81 317.96 630.56  Q 327.50 633.46 336.67 636.01  Q 342.87 637.74 349.53 639.17  Q 352.98 639.91 356.53 640.47  Q 358.23 640.73 359.87 641.16  Q 361.14 641.49 362.49 641.48  Q 363.68 641.47 364.91 641.71  Q 371.38 642.97 376.87 642.58  Q 378.74 642.44 380.85 642.92  Q 382.79 643.36 383.80 644.80  Q 384.09 645.22 383.95 645.71  Q 383.34 647.93 381.24 648.26  A 0.70 0.69 -27.2 0 0 380.86 649.44  Q 385.70 654.24 385.93 661.24  Q 386.10 666.72 381.24 669.03  A 0.53 0.53 0.0 0 1 380.49 668.52  C 380.59 666.62 382.00 666.08 382.90 664.71  C 386.19 659.72 382.25 653.73 377.36 651.82  C 373.88 650.47 369.06 649.81 365.37 651.05  C 363.90 651.55 362.46 651.53 360.96 652.07  Q 355.23 654.14 349.11 655.93  C 347.75 656.33 346.36 656.27 345.08 656.75  Q 344.29 657.05 343.40 656.99  Q 339.83 656.78 337.20 656.33  Q 334.39 655.85 331.69 653.48  C 328.10 650.34 327.12 645.88 329.28 641.52  Z  M 344.65 643.70  Q 340.52 642.93 336.71 642.20  C 334.35 641.75 332.00 639.98 330.73 643.55  C 328.79 649.03 333.69 652.26 338.45 652.51  Q 349.11 653.04 360.20 647.90  Q 362.12 647.00 360.04 646.61  Q 352.42 645.16 344.65 643.70  Z"></path>
<path d="  M 393.77 515.85  A 1.32 1.31 70.5 0 0 392.46 515.22  C 389.85 515.58 386.65 515.68 384.74 513.62  A 0.98 0.97 58.3 0 1 385.11 512.05  Q 387.18 511.26 388.89 510.24  Q 400.55 503.24 399.04 490.20  Q 398.91 489.07 400.03 488.84  C 402.63 488.32 404.16 490.19 403.02 492.50  C 402.25 494.06 401.66 495.67 402.10 497.43  Q 403.37 502.52 407.82 506.08  Q 412.33 509.68 417.10 512.96  Q 417.67 513.36 417.14 513.80  C 414.72 515.85 412.72 515.29 409.93 515.30  Q 409.21 515.30 408.87 515.93  C 406.70 520.01 402.94 523.22 403.36 528.26  Q 403.44 529.17 402.55 529.36  L 400.22 529.84  A 0.99 0.98 77.7 0 1 399.05 529.08  Q 397.54 522.15 393.77 515.85  Z"></path>
<ellipse cx="0.00" cy="0.00" transform="translate(441.90,518.09) rotate(-1.0)" rx="2.59" ry="0.51"></ellipse>
<ellipse cx="0.00" cy="0.00" transform="translate(180.77,524.58) rotate(55.7)" rx="3.23" ry="0.57"></ellipse>
<path d="  M 498.36 617.88  Q 506.86 614.83 515.50 610.86  Q 526.41 605.84 535.51 598.90  C 538.55 596.57 542.16 594.84 545.60 593.16  Q 551.02 590.51 552.39 589.09  Q 554.96 586.45 557.70 583.92  C 561.74 580.19 567.11 578.82 570.73 574.45  C 575.62 568.56 582.25 565.29 587.76 560.08  Q 604.25 544.50 618.02 526.95  Q 618.21 526.71 618.43 526.93  L 618.62 527.12  Q 618.71 527.21 618.65 527.31  Q 618.00 528.42 617.24 529.44  Q 601.00 551.25 580.25 568.30  Q 577.14 570.85 574.46 573.49  C 571.93 575.98 569.72 578.41 566.84 580.44  C 558.99 585.97 550.58 591.11 542.50 596.85  Q 535.86 601.56 528.35 605.31  Q 518.24 610.37 508.26 615.06  Q 498.91 619.46 486.93 622.84  Q 485.14 623.35 483.62 623.57  Q 483.23 623.63 482.93 623.87  C 481.99 624.61 480.85 624.37 479.72 624.78  Q 469.05 628.63 457.95 631.31  C 455.70 631.86 453.25 632.01 450.92 632.23  Q 450.31 632.29 450.74 631.86  Q 451.08 631.51 451.55 631.61  Q 452.83 631.88 453.79 631.13  Q 454.24 630.78 454.80 630.65  Q 478.53 625.02 498.36 617.88  Z"></path>
<ellipse cx="0.00" cy="0.00" transform="translate(184.56,529.40) rotate(54.0)" rx="1.29" ry="0.52"></ellipse>
<path d="  M 304.65 618.23  C 306.27 618.72 307.81 619.61 309.47 620.10  C 313.61 621.31 317.73 622.76 321.95 623.75  Q 328.66 625.32 334.80 628.07  Q 335.40 628.33 334.76 628.46  Q 333.72 628.66 332.74 628.43  Q 298.35 620.16 268.56 603.03  Q 260.42 598.35 240.23 583.81  Q 218.27 567.99 199.31 547.18  Q 199.20 547.07 198.85 546.83  Q 198.43 546.56 198.18 546.12  Q 196.94 543.89 195.14 541.86  Q 195.07 541.78 195.09 541.69  Q 195.10 541.64 195.13 541.60  Q 195.16 541.55 195.21 541.60  Q 205.45 551.91 215.87 561.60  Q 217.87 563.46 225.13 569.61  C 248.30 589.25 272.89 605.10 300.61 616.76  Q 302.69 617.64 304.65 618.23  Z"></path>
<ellipse cx="0.00" cy="0.00" transform="translate(354.61,632.13) rotate(1.8)" rx="2.72" ry="0.54"></ellipse>
<path d="  M 397.90 656.11  C 396.88 658.23 395.29 661.13 393.05 662.14  Q 392.07 662.58 391.26 661.87  L 390.89 661.54  Q 390.13 660.87 391.01 660.36  C 393.56 658.87 396.87 658.58 396.70 654.65  C 396.55 650.93 392.68 649.43 393.09 646.12  Q 393.89 639.73 399.42 638.80  Q 405.24 637.81 408.31 643.54  Q 409.21 645.22 408.49 648.64  Q 408.38 649.16 407.99 649.52  Q 405.90 651.42 405.36 653.75  A 0.56 0.56 0.0 0 1 404.64 654.15  Q 403.52 653.79 402.54 654.15  A 0.94 0.92 -2.0 0 0 401.94 654.78  Q 400.78 658.91 402.69 662.27  Q 404.74 665.88 407.13 668.57  Q 407.69 669.19 407.08 669.77  L 402.85 673.75  Q 402.21 674.36 401.42 673.98  Q 400.55 673.56 399.56 673.77  Q 398.85 673.92 398.37 673.38  L 395.79 670.47  A 1.66 1.64 39.7 0 1 395.60 668.55  C 397.65 665.03 400.57 660.69 399.81 656.36  Q 399.25 653.26 397.90 656.11  Z  M 405.0349 645.9246  A 4.15 3.51 -6.3 0 0 400.5248 642.8912  A 4.15 3.51 -6.3 0 0 396.7851 646.8354  A 4.15 3.51 -6.3 0 0 401.2952 649.8688  A 4.15 3.51 -6.3 0 0 405.0349 645.9246  Z"></path>
</g>
</svg>