<svg xmlns="http://www.w3.org/2000/svg" width="80" height="40" viewBox="0 0 80 40" fill="none">
  <path fill-rule="evenodd" clip-rule="evenodd" d="M52.8317 29.9235C53.157 29.907 53.4646 29.896 53.8094 29.896C57.3397 29.896 58.5113 31.13 58.2174 33.087L57.1986 39.8497H53.5135L54.589 32.7061C54.6792 32.1075 54.444 31.6005 53.5135 31.6005C53.106 31.6005 52.8063 31.6554 52.5634 31.7286L51.3409 39.8497H47.6538L49.1604 29.8154C49.4229 28.1092 50.6731 26.9358 53.3179 26.6667L52.8317 29.9235ZM67.5419 27.6333H62.4756L62.2758 28.9112H66.4389C66.9855 28.9112 67.4262 28.4021 67.5419 27.6333ZM65.6613 32.7236L65.4733 33.8184C65.3792 34.4134 64.9894 34.9186 64.0528 34.915H63.159L63.6327 31.7441C63.8756 31.671 64.1782 31.616 64.5857 31.616C65.5163 31.616 65.7515 32.1231 65.6613 32.7236ZM67.4774 39.3939C67.5519 38.9379 67.3755 38.5719 66.7975 38.5719H63.851C62.9185 38.5719 62.6923 38.0648 62.7825 37.4661L62.9039 36.623L64.0528 36.6149C67.4363 36.5746 68.935 35.3599 69.2307 33.4523L69.2916 33.0935C69.5795 31.142 68.406 29.9116 64.8816 29.9116C62.94 29.9116 61.267 30.2027 60.1131 30.6568L59.2118 36.645C58.9238 38.5526 60.0347 39.7893 63.3612 39.8497H67.4049L67.4774 39.3939ZM47.8799 31.7314L47.97 31.1433C48.0444 30.638 48.0994 30.2065 47.3627 30.0782C46.6476 29.9666 45.813 29.9116 44.8218 29.9116C41.2953 29.9116 39.7555 31.1418 39.4635 33.0933L38.911 36.7968C38.623 38.7502 39.7964 39.9999 43.321 39.9999C44.3202 39.9999 45.2467 39.9018 46.0716 39.7644C46.4693 39.6748 46.7417 39.5082 46.8533 38.7227L46.9376 38.1334C46.05 38.3238 44.9279 38.4684 43.5874 38.4684C42.6723 38.4684 42.4218 37.9613 42.5118 37.3626L43.2328 32.5493C43.323 31.9506 43.7226 31.4239 44.6394 31.4239C46.7419 31.4239 47.8799 31.7314 47.8799 31.7314ZM33.3996 31.5344C32.9895 31.5344 32.6897 31.5881 32.4432 31.662L31.9522 34.8663H32.8652C33.8057 34.87 34.1982 34.3612 34.2928 33.76L34.4823 32.6518C34.5729 32.0469 34.3382 31.5344 33.3996 31.5344ZM38.4141 39.8553H34.7381L32.6384 36.5474H31.6938L31.1988 39.8553H27.4873L28.8885 30.5653C30.0501 30.1065 31.745 29.8123 33.6972 29.8123C37.2509 29.8123 38.432 31.0185 38.1363 32.998L38.0772 33.3561C37.8937 34.5401 37.2488 35.4577 35.9888 35.9998L38.4141 39.8553ZM22.5555 38.1694C22.3106 38.2408 22.0127 38.2975 21.6033 38.2975C20.6725 38.2975 20.4394 37.7886 20.5296 37.1899L20.7176 36.0952C20.8096 35.4982 21.2017 34.9948 22.1362 34.9984H23.0413L22.5555 38.1694ZM19.7205 29.9115C19.1719 29.9115 18.733 30.4168 18.6155 31.1876H22.3752C23.3057 31.1876 23.5408 31.7294 23.4507 32.328L23.29 33.3014H22.0657C18.733 33.3582 17.2539 34.5682 16.958 36.4612L16.8993 36.8147C16.6093 38.7681 17.7829 40 21.3095 40C23.249 40 24.9221 39.7108 26.0779 39.2587L27.0005 33.1354C27.2886 31.2261 26.1896 29.972 22.863 29.9115H19.7205ZM11.9975 29.9117C10.775 29.9117 9.65636 30.0288 8.70807 30.2267C8.05176 30.0234 7.21141 29.9117 6.1612 29.9117C4.22168 29.9117 2.54673 30.2045 1.39273 30.6567L0 39.8498H3.69083L4.91531 31.7287C5.1582 31.6555 5.45794 31.6005 5.86547 31.6005C6.65888 31.6005 6.94498 31.9702 6.95675 32.4499L5.84207 39.8498H9.52716L10.7518 31.7287C10.9947 31.6555 11.2944 31.6005 11.7019 31.6005C12.4953 31.6005 12.7813 31.9702 12.7931 32.4499L11.6784 39.8498H15.3656L16.3863 33.087C16.6801 31.13 15.5319 29.9117 11.9975 29.9117Z" fill="#E53212"/>
  <path fill-rule="evenodd" clip-rule="evenodd" d="M2.51983 0H8.56765L5.33543 22.1793C1.12355 21.7266 -0.352187 19.7891 0.0690443 16.9155L2.51983 0ZM35.5276 20.0327C36.4761 20.0327 36.7656 20.5624 36.6434 21.3292L36.518 22.1794L33.8967 22.1777C28.4308 22.0791 26.7443 20.0266 27.2138 16.8106L28.8819 5.29749C29.3128 2.42703 31.3665 0.452762 35.707 4.06901e-05L34.7256 6.71305H37.9889C37.7995 8.00666 37.076 8.88288 36.1789 8.88288H34.4071L33.0551 18.1722C32.9072 19.1764 33.2928 20.0327 34.8202 20.0327H35.5276ZM48.9385 10.1903L48.6299 12.0321C48.4756 13.0332 47.8357 13.8832 46.2987 13.8771H44.8318L45.6093 8.54239C46.0079 8.41938 46.5044 8.32686 47.1732 8.32686C48.7006 8.32686 49.0865 9.17995 48.9385 10.1903ZM51.919 21.4125C52.0412 20.6454 51.7517 20.0295 50.8032 20.0295H45.9675C44.4371 20.0295 44.0659 19.1764 44.2139 18.1692L44.4132 16.7507L46.2987 16.737C51.8516 16.6693 54.3111 14.6256 54.7965 11.4162L54.8963 10.8125C55.3689 7.52929 53.443 5.45935 47.6588 5.45935C44.4724 5.45935 41.7266 5.94908 39.833 6.71301L38.3537 16.7877C37.8811 19.9971 39.7043 22.0778 45.1637 22.1793H51.8L51.919 21.4125ZM66.5549 10.1867L66.2463 12.0317C66.092 13.0326 65.4521 13.8796 63.9184 13.8735H62.4297L63.2303 8.53881C63.6324 8.4158 64.121 8.32644 64.7896 8.32644C66.3203 8.32644 66.7029 9.17952 66.5549 10.1867ZM72.5127 10.7631C72.995 7.46747 71.069 5.45955 65.2752 5.45955C62.0921 5.45955 59.3286 5.94907 57.4347 6.713L55.1503 22.1793H61.2014L62.0085 16.6722H63.5488L74.9885 31.5641C75.7408 32.5435 76.6893 33.2686 77.9014 33.2686H79.5218L69.0112 15.7605C71.0658 14.858 72.1172 13.3303 72.4162 11.3592L72.5127 10.7631ZM17.6939 22.1793L19.4589 10.1609C19.6069 9.15366 19.2133 7.73031 16.1345 8.51632L14.1282 22.1793H8.07687L10.3536 6.71301C12.2503 5.95223 14.9931 5.45935 18.1794 5.45935C23.973 5.45935 25.8992 7.50911 25.4137 10.8016L23.7448 22.1793H17.6939Z" fill="black"/>
</svg>