<svg width="250" height="250" viewBox="0 0 250 250"
     xmlns="http://www.w3.org/2000/svg">
  <ellipse cx="135" cy="170" rx="65" ry="40"
           fill="#D8D4CE"/>
  <circle cx="110" cy="100" r="42"
          fill="#D8D4CE"/>
  <ellipse cx="80" cy="95" rx="14" ry="26"
           fill="#BEB8B0"/>
  <ellipse cx="145" cy="95" rx="14" ry="26"
           fill="#BEB8B0"/>
  <path d="M95 100 Q100 98 105 100"
        stroke="#555" stroke-width="3" fill="none"/>
  <path d="M115 100 Q120 98 125 100"
        stroke="#555" stroke-width="3" fill="none"/>
  <ellipse cx="110" cy="118" rx="6" ry="4"
           fill="#555"/>
  <path d="M104 125 Q110 128 116 125"
        stroke="#555" stroke-width="2" fill="none"/>
  <rect x="92" y="70" width="36" height="14" rx="6"
        fill="#EFEDEA" stroke="#B0ABA5" stroke-width="2"/>
  <line x1="104" y1="70" x2="104" y2="84"
        stroke="#B0ABA5" stroke-width="2"/>
  <line x1="116" y1="70" x2="116" y2="84"
        stroke="#B0ABA5" stroke-width="2"/>
  <ellipse cx="105" cy="205" rx="12" ry="26"
           fill="#D8D4CE"/>
  <ellipse cx="155" cy="205" rx="12" ry="26"
           fill="#D8D4CE"/>
  <rect x="92" y="190" width="26" height="10" rx="4"
        fill="#EFEDEA" stroke="#B0ABA5" stroke-width="2"/>
  <path d="M195 170 Q210 180 205 195"
        stroke="#BEB8B0"
        stroke-width="8"
        fill="none"
        stroke-linecap="round"/>
</svg>