<svg width="250" height="250" viewBox="0 0 250 250"
     xmlns="http://www.w3.org/2000/svg">
  <polygon points="50,120 125,60 200,120"
           fill="#D6D1CB"/>
  <rect x="70" y="120" width="110" height="80" rx="8"
        fill="#E5E1DC"/>
  <rect x="112" y="150" width="26" height="50" rx="6"
        fill="#C8C2BB"/>
  <circle cx="125" cy="150" r="22"
          fill="#CFCAC4"/>
  <ellipse cx="108" cy="140" rx="6" ry="12"
           fill="#BEB8B0"/>
  <ellipse cx="142" cy="140" rx="6" ry="12"
           fill="#BEB8B0"/>
  <circle cx="118" cy="150" r="3" fill="#444"/>
  <circle cx="132" cy="150" r="3" fill="#444"/>
  <path d="M118 158 Q125 162 132 158"
        stroke="#444" stroke-width="2" fill="none"/>
  <ellipse cx="125" cy="182" rx="18" ry="14"
           fill="#CFCAC4"/>
  <path d="M155 90
           C155 82, 165 82, 165 90
           C165 82, 175 82, 175 90
           C175 100, 165 108, 165 108
           C165 108, 155 100, 155 90"
        fill="#E6B8B8"/>
</svg>