<svg aria-hidden="true" data-file="logo.svg" xmlns="http://www.w3.org/2000/svg" viewBox="0 0 713.63 129.54"><g><g><path d="m44.59,64.36c1.17-.74,2.29-1.75,3.33-3,2.11-2.51,3.17-5.75,3.17-9.61,0-5.5-1.81-10.01-5.39-13.38-3.55-3.35-8.31-5.05-14.15-5.05H0v64.05h31.66c6.92,0,12.23-1.68,15.78-5,3.58-3.35,5.39-7.87,5.39-13.43,0-4.42-1.21-8.07-3.59-10.85-1.4-1.64-2.96-2.89-4.65-3.71Zm-29.24,7.29h15.39c2,0,3.55.54,4.74,1.65,1.16,1.08,1.72,2.54,1.72,4.44s-.55,3.36-1.69,4.45c-1.14,1.09-2.9,1.64-5.23,1.64h-14.94v-12.19Zm18.98-14.53h0c-1.22,1.17-2.83,1.73-4.95,1.73h-14.03v-12h14.85c1.69,0,3.08.53,4.23,1.61,1.13,1.06,1.68,2.37,1.68,4.03,0,1.97-.58,3.49-1.78,4.63Z"></path><path d="m112.71,67.9c3.41-3.67,5.13-8.3,5.13-13.77,0-6.19-2.19-11.27-6.51-15.1-4.27-3.79-9.94-5.71-16.85-5.71h-30.75v64.05h15.35v-22.43h4.34l20.01,22.28.14.16h19.12l-20.99-23.23c4.47-1.09,8.16-3.18,11-6.24Zm-10.13-13.77c0,1.99-.69,3.55-2.12,4.75-1.48,1.25-3.49,1.89-5.98,1.89h-15.39v-13.28h15.39c2.49,0,4.5.63,5.98,1.89,1.43,1.21,2.12,2.76,2.12,4.75Z"></path><rect x="128.85" y="33.32" width="15.35" height="64.05"></rect><path d="m285.6,41.68c-6.49-6.46-14.53-9.73-23.89-9.73s-17.39,3.27-23.88,9.73c-6.49,6.46-9.78,14.45-9.78,23.75s3.29,17.19,9.78,23.62c6.49,6.43,14.52,9.68,23.88,9.68s17.39-3.26,23.88-9.68c6.49-6.43,9.78-14.38,9.78-23.62s-3.29-17.29-9.78-23.75Zm-5.66,23.75c0,5.34-1.77,9.84-5.27,13.37-3.49,3.52-7.85,5.31-12.95,5.31s-9.45-1.79-12.95-5.31c-3.5-3.53-5.27-8.02-5.27-13.37s1.78-9.88,5.28-13.47c3.49-3.58,7.85-5.39,12.94-5.39s9.45,1.81,12.94,5.39c3.5,3.59,5.28,8.12,5.28,13.47Z"></path><path d="m205.25,69.4l-.14.65c-1.02,4.74-3.02,8.32-5.95,10.64-2.94,2.33-6.53,3.51-10.66,3.51-5.03,0-9.36-1.81-12.85-5.39-3.5-3.59-5.28-8.12-5.28-13.47s1.76-9.87,5.23-13.42c3.46-3.55,7.8-5.35,12.9-5.35,4.08,0,7.65,1.18,10.62,3.51,2.93,2.3,4.93,5.8,5.96,10.42l15.18-2.78-.23-1.08c-1.59-7.56-5.33-13.63-11.13-18.06-5.77-4.41-12.63-6.64-20.41-6.64-9.36,0-17.38,3.26-23.84,9.69-6.46,6.43-9.73,14.41-9.73,23.71s3.28,17.36,9.74,23.75c6.46,6.39,14.47,9.64,23.83,9.64,7.84,0,14.74-2.28,20.51-6.79,5.8-4.52,9.51-10.87,11.03-18.85l.18-.96-14.97-2.74Z"></path></g><g><g><rect x=".84" y="113.59" width="48.06" height="11.8" transform="translate(-20.72 6.27) rotate(-10.18)" fill="#e2001a"></rect><rect x="665.29" y="4.18" width="47.1" height="11.56" transform="translate(9.65 125.29) rotate(-10.47)" fill="#e2001a"></rect><g><polygon points="341.6 73.95 319.73 34.09 319.31 33.32 306.11 33.32 306.11 97.37 321.1 97.37 321.1 68.35 337.08 97.37 346.21 97.37 362.1 68.37 362.1 97.37 377.09 97.37 377.09 33.32 363.98 33.32 341.6 73.95" fill="#e2001a"></polygon><path d="m424.33,33.79h-12.9l-27.32,63.11h15.61l5.38-13.04h25.64l5.29,13.04h15.62l-27.05-62.51-.26-.61Zm-14.14,37.21l7.73-18.85,7.65,18.85h-15.38Z" fill="#e2001a"></path><path d="m507.63,67.9c3.41-3.67,5.13-8.3,5.13-13.77,0-6.19-2.19-11.27-6.51-15.1-4.27-3.79-9.94-5.71-16.85-5.71h-30.75v64.05h15.35v-22.43h4.34l20.01,22.28.14.16h19.12l-20.99-23.23c4.47-1.09,8.16-3.18,11-6.24Zm-10.13-13.77c0,1.99-.69,3.55-2.12,4.75-1.48,1.25-3.49,1.89-5.98,1.89h-15.39v-13.28h15.39c2.49,0,4.5.63,5.98,1.89,1.43,1.21,2.12,2.76,2.12,4.75Z" fill="#e2001a"></path><polygon points="637.57 58.12 611.34 58.12 611.34 33.32 595.99 33.32 595.99 97.37 611.34 97.37 611.34 72.29 637.57 72.29 637.57 97.37 652.92 97.37 652.92 33.32 637.57 33.32 637.57 58.12" fill="#e2001a"></polygon><polygon points="681.74 83.2 681.74 72.29 712.92 72.29 712.92 58.31 681.74 58.31 681.74 47.49 713.44 47.49 713.44 33.32 666.38 33.32 666.38 97.37 713.63 97.37 713.63 83.2 681.74 83.2" fill="#e2001a"></polygon></g></g><path d="m570.47,69.4l-.14.65c-1.02,4.74-3.02,8.32-5.95,10.64-2.94,2.33-6.53,3.51-10.66,3.51-5.03,0-9.36-1.81-12.85-5.39-3.5-3.59-5.28-8.12-5.28-13.47s1.76-9.87,5.23-13.42c3.46-3.55,7.8-5.35,12.9-5.35,4.08,0,7.65,1.18,10.62,3.51,2.93,2.3,4.93,5.8,5.96,10.42l15.18-2.78-.23-1.08c-1.59-7.56-5.33-13.63-11.13-18.06-5.77-4.41-12.63-6.64-20.41-6.64-9.36,0-17.38,3.26-23.84,9.69-6.46,6.43-9.73,14.41-9.73,23.71s3.28,17.36,9.74,23.75c6.46,6.39,14.47,9.64,23.83,9.64,7.84,0,14.74-2.28,20.51-6.79,5.8-4.52,9.51-10.87,11.03-18.85l.18-.96-14.97-2.74Z" fill="#e2001a"></path></g></g></svg>