<svg width="169" height="40" viewBox="0 0 169 40" fill="none" xmlns="http://www.w3.org/2000/svg">
  <g clip-path="url(#clip0_3156_10)">
    <path fill-rule="evenodd" clip-rule="evenodd" d="M19.2354 25.2456C20.6849 25.2456 21.8597 26.4295 21.8597 27.8897C21.8597 29.35 20.6849 30.5336 19.2354 30.5336C17.7859 30.5336 16.6111 29.35 16.6111 27.8897C16.6111 26.4295 17.7859 25.2456 19.2354 25.2456ZM144.938 9.3614C146.704 8.06441 148.874 7.29947 151.227 7.29947C157.131 7.29947 161.918 12.122 161.918 18.0706C161.918 21.8266 160.009 25.1341 157.116 27.0617L157.116 22.8366H152.49C152.49 22.8366 151.996 25.2035 150.03 25.2035H148.49V16.3276C148.49 15.4067 149.239 14.6752 150.146 14.629L150.146 9.3614H144.938Z" fill="#FF6633"/>
    <path fill-rule="evenodd" clip-rule="evenodd" d="M149.355 -0.000213623C160.069 -0.000213623 168.754 8.74975 168.754 19.5437C168.754 30.3374 160.069 39.0879 149.355 39.0879C138.64 39.0879 129.955 30.3374 129.955 19.5437C129.955 8.74975 138.64 -0.000213623 149.355 -0.000213623ZM149.355 4.05615C140.864 4.05615 133.982 10.9901 133.982 19.5437C133.982 28.097 140.864 35.031 149.355 35.031C157.845 35.031 164.728 28.097 164.728 19.5437C164.728 10.9901 157.845 4.05615 149.355 4.05615ZM148.566 10.9649V13.6093C147.651 13.8577 146.91 14.6467 146.91 15.7837V26.7954H150.03C151.603 26.7954 152.955 25.8258 153.523 24.4471L155.536 24.4361V30.2972H140.37V26.8863C141.318 26.6488 142.029 25.748 142.029 24.7444V15.854C142.029 14.5992 141.26 13.8352 140.37 13.6042V10.9649H148.566ZM29.4765 10.965V26.2701H36.9716V30.2982H24.6078V10.965H29.4765ZM53.6226 25.4683V25.6969C53.6226 29.2133 51.3613 30.4629 46.3698 30.4629C40.2034 30.4629 38.3335 28.9838 38.3335 22.5417C38.3335 16.4286 40.4587 14.785 46.0107 14.785C51.5403 14.785 53.6226 16.2969 53.6226 22.0482V23.396H42.64V24.0205C42.64 26.65 43.7077 27.3399 46.1413 27.3399C48.2689 27.3399 49.2947 26.9772 49.3813 25.4683H53.6226ZM42.64 20.865H49.3813V20.3396C49.349 18.3345 48.492 17.973 46.0125 17.973C43.6308 17.973 42.64 18.3525 42.64 20.865ZM74.535 30.2983H78.8744V10.9651H74.535V30.2983ZM64.2426 27.103C66.3922 27.103 67.2861 26.6363 67.3314 24.7106H71.5494C71.5337 29.2069 69.5142 30.4629 63.9806 30.4629C58.4564 30.4629 56.4912 28.7828 56.4912 22.6235C56.4912 16.4644 58.4561 14.785 63.9806 14.785C69.4942 14.785 71.5207 16.0321 71.5491 20.4886H67.3298C67.2746 18.6036 66.3741 18.1445 64.2426 18.1445C61.6596 18.1445 60.8979 18.6236 60.8979 22.6241C60.8979 26.6242 61.6599 27.103 64.2426 27.103ZM97.3986 25.4683V25.6969C97.3986 29.2133 95.1373 30.4629 90.1458 30.4629C83.9794 30.4629 82.1093 28.9838 82.1093 22.5417C82.1093 16.4286 84.2347 14.785 89.7864 14.785C95.3163 14.785 97.3986 16.2969 97.3986 22.0482V23.396H86.4157V24.0205C86.4157 26.65 87.4838 27.3399 89.9171 27.3399C92.0449 27.3399 93.0704 26.9772 93.157 25.4683H97.3986ZM86.4157 20.865H93.157V20.3396C93.1247 18.3345 92.2677 17.973 89.7882 17.973C87.4068 17.973 86.4157 18.3525 86.4157 20.865ZM118.517 27.103C120.667 27.103 121.561 26.636 121.606 24.7106H125.824C125.808 29.2063 123.789 30.4622 118.255 30.4622C112.731 30.4622 110.766 28.7822 110.766 22.6235C110.766 16.4644 112.731 14.785 118.255 14.785C123.769 14.785 125.795 16.0321 125.824 20.4886H121.604C121.549 18.6036 120.648 18.1445 118.517 18.1445C115.934 18.1445 115.172 18.6236 115.172 22.6241C115.172 26.6239 115.934 27.103 118.517 27.103ZM109.682 18.7537C109.682 18.7537 108.615 18.7412 108.488 18.7412C106.106 18.7412 104.957 20.1412 104.957 23.166V30.297H100.617V15.0588H104.957V17.329C106.006 15.6054 107.35 14.8001 109.16 14.7849H109.682V18.7537ZM4.85682 14.9931V18.6189H12.7971V22.2451H4.85682V26.2701H14.0236V30.2982H-0.00012207V10.965H13.8917V14.9931H4.85682Z" fill="#0066CC"/>
  </g>
  <defs>
    <clipPath id="clip0_3156_10">
      <rect width="169" height="40" fill="white"/>
    </clipPath>
  </defs>
</svg>
